<?xml version="1.0" encoding="utf-8"?>
<!-- Generator: Adobe Illustrator 25.3.1, SVG Export Plug-In . SVG Version: 6.00 Build 0)  -->
<svg version="1.1" id="Шар_6" xmlns="http://www.w3.org/2000/svg" xmlns:xlink="http://www.w3.org/1999/xlink" x="0px" y="0px"
	 viewBox="0 0 512 512" style="enable-background:new 0 0 512 512;" xml:space="preserve">
<style type="text/css">
	.st0{fill:none;stroke:#000000;stroke-width:5;stroke-miterlimit:10;}
	.st1{fill:none;stroke:#000000;stroke-width:7;stroke-miterlimit:10;}
	.st2{fill:none;stroke:#000000;stroke-width:10;stroke-miterlimit:10;}
</style>
<g id="Шар_4">
	<path class="st0" d="M189,172L189,172c0,0,0,0.1,0,0.1c1.9,5.7,7.2,9.8,13.6,9.8c6.8,0,12.4-4.7,13.9-11c0.2-1,0.4-2.1,0.4-3.3
		c0-2.8-0.8-5.4-2.2-7.6h0c-2.5-4-7-6.6-12.1-6.6c-5.5,0-10.3,3.1-12.6,7.7"/>
	<path class="st1" d="M150.7,152.8c-25.8,16.3-42.9,45-42.9,77.8v156.6c0,25.4,10.3,48.4,26.9,65c16.6,16.7,39.6,27,65.1,27
		c41.7,0,76.9-27.8,88.2-65.8c2.5-8.3,3.8-17.1,3.8-26.2V230.6c0-25.4-10.3-48.4-26.9-65.1c-4.8-4.8-10.2-9.1-15.9-12.8
		c-3.2-2.1-6.6-3.9-10.2-5.6c-10.1-4.7-21.3-7.7-33-8.4c-2-0.1-4-0.2-6-0.2c-13.9,0-27.1,3.1-39,8.6"/>
</g>
<g id="Шар_3">
	<circle class="st0" cx="254.3" cy="137.8" r="14.3"/>
	<path class="st2" d="M188.9,172.1C188.9,172,188.9,172,188.9,172.1L188.9,172.1"/>
	<path class="st1" d="M205.8,138.8c8.8-11,20.3-20.2,34-26.4c6.2-2.8,12.6-4.8,18.9-6.2c3.7-0.8,7.4-1.3,11.1-1.6
		c2.6-0.2,5.2-0.3,7.8-0.3c35,0,68.5,20.1,83.9,54.2L426,301.1c20.9,46.3,0.3,100.8-46,121.7c-12.3,5.5-25.1,8.2-37.8,8.2
		c-19.5,0-38.5-6.2-54.1-17.6"/>
</g>
<g id="Шар_9">
	<g>
		<path d="M310.8,144.5l-8.8,4l-0.7-1.6l19.4-8.9l3,6.5c1,2.1,1.2,3.9,0.8,5.4c-0.4,1.5-1.5,2.7-3.2,3.5c-1,0.5-2.1,0.6-3.2,0.4
			c-1.1-0.2-2.1-0.8-2.9-1.7c0.2,1.3,0.1,2.4-0.4,3.3c-0.5,0.9-1.4,1.6-2.6,2.1l-1.8,0.8c-0.6,0.3-1.1,0.6-1.5,1
			c-0.4,0.4-0.7,0.8-0.8,1.2l-0.3,0.1l-0.7-1.6c0.2-0.5,0.5-0.9,1-1.3c0.5-0.4,1.1-0.7,1.7-1l1.8-0.8c1.2-0.5,2-1.4,2.3-2.4
			c0.3-1.1,0.2-2.3-0.4-3.7L310.8,144.5z M312.2,143.9l2.1,4.7c0.8,1.7,1.7,2.9,2.8,3.3c1.1,0.5,2.2,0.4,3.4-0.1
			c1.3-0.6,2.1-1.4,2.4-2.6s0.1-2.5-0.6-4.1l-2.2-4.9L312.2,143.9z"/>
		<path d="M313.5,173.5c0.5-0.3,0.9-0.6,1.2-0.8s0.7-0.4,1.1-0.6c-1-0.1-2-0.5-2.9-1.2c-0.9-0.7-1.7-1.6-2.2-2.7
			c-0.6-1.4-0.8-2.7-0.4-3.8s1.2-2,2.5-2.6c1.3-0.6,2.6-0.5,3.9,0.3s2.4,2,3.2,3.8l1.6,3.5l1.8-0.8c1-0.5,1.7-1.2,2-2.1
			c0.3-0.9,0.2-2-0.4-3.2c-0.5-1.1-1.2-1.8-2-2.3s-1.7-0.5-2.5-0.1l-0.7-1.5l0.1-0.1c1.1-0.5,2.2-0.5,3.5,0.1c1.3,0.6,2.3,1.7,3,3.3
			c0.7,1.6,0.9,3,0.5,4.4s-1.3,2.3-2.8,3l-7.1,3.3c-0.5,0.2-1,0.5-1.4,0.8c-0.5,0.3-0.9,0.6-1.3,0.9L313.5,173.5z M312.2,167.7
			c0.6,1.2,1.3,2.2,2.3,2.8c1,0.6,2,0.9,3.1,0.8l2.8-1.3l-1.6-3.6c-0.6-1.3-1.4-2.2-2.4-2.8c-1-0.6-1.9-0.6-2.8-0.2
			c-0.8,0.4-1.4,0.9-1.6,1.7C311.7,165.9,311.8,166.7,312.2,167.7z"/>
		<path d="M331.1,173.8l-2.4,1.3c1.1,0.1,2.1,0.4,2.9,0.9s1.5,1.4,2,2.4c0.7,1.6,0.8,3,0.2,4.2c-0.6,1.3-1.9,2.3-3.9,3.3l-8.8,4
			l-0.7-1.6l8.8-4c1.7-0.8,2.7-1.6,3.1-2.5c0.4-0.9,0.3-2-0.2-3.1c-0.5-1.1-1.2-1.9-2.1-2.4s-1.9-0.6-2.9-0.5l-10.2,4.7l-0.7-1.6
			l14.4-6.6L331.1,173.8z"/>
		<path d="M329.9,190.3c2.3-1.1,4.4-1.4,6.2-1.1c1.8,0.3,3.1,1.4,3.9,3.1c0.5,1,0.6,1.9,0.6,2.9c-0.1,0.9-0.4,1.8-0.9,2.7l8.5-3.9
			l0.7,1.6l-20.8,9.5l-0.6-1.3l2-1.2c-1-0.1-1.9-0.5-2.6-1.1c-0.8-0.6-1.4-1.4-1.8-2.4c-0.8-1.7-0.8-3.4,0.1-4.9s2.3-2.8,4.5-3.8
			L329.9,190.3z M330.3,192.1c-1.7,0.8-3,1.8-3.7,3s-0.7,2.5-0.1,3.9c0.5,1,1.1,1.8,1.9,2.3c0.8,0.5,1.6,0.7,2.6,0.7l6.8-3.1
			c0.6-0.7,1.1-1.6,1.3-2.5c0.2-0.9,0.1-1.9-0.4-2.9c-0.6-1.4-1.7-2.2-3.2-2.4c-1.5-0.2-3.1,0.2-5,1L330.3,192.1z"/>
		<path d="M337,205.1c2.1-1,4.1-1.2,6-0.7c1.9,0.5,3.3,1.8,4.2,3.7c0.9,1.9,0.9,3.8,0.1,5.6s-2.3,3.2-4.4,4.1l-0.4,0.2
			c-2.1,1-4.1,1.2-6,0.7c-1.9-0.5-3.3-1.8-4.1-3.7c-0.9-1.9-0.9-3.8-0.1-5.6c0.8-1.8,2.3-3.2,4.4-4.1L337,205.1z M337.3,206.9
			c-1.7,0.8-2.9,1.8-3.6,3.2c-0.7,1.4-0.8,2.8-0.1,4.3c0.7,1.5,1.8,2.4,3.3,2.7c1.5,0.3,3.1,0.1,4.8-0.7l0.4-0.2
			c1.6-0.8,2.8-1.8,3.6-3.2c0.8-1.4,0.8-2.8,0.1-4.3c-0.7-1.5-1.8-2.4-3.3-2.7c-1.5-0.3-3.1-0.1-4.8,0.7L337.3,206.9z"/>
		<path d="M352,219.3l-2.3,1.2c1,0.1,2,0.4,2.8,1c0.8,0.6,1.5,1.4,1.9,2.4c0.5,1.1,0.7,2.1,0.5,3.1c-0.2,1-0.8,1.9-1.7,2.7
			c1.2,0,2.3,0.2,3.2,0.8c0.9,0.5,1.7,1.4,2.2,2.5c0.7,1.5,0.7,3,0.1,4.3c-0.6,1.3-2,2.5-4.2,3.4l-8.4,3.9l-0.7-1.6l8.4-3.9
			c1.8-0.8,2.9-1.7,3.3-2.7c0.4-1,0.4-2-0.1-3.1c-0.6-1.2-1.4-2-2.4-2.3c-1-0.3-2.2-0.3-3.5,0.1c-0.1,0-0.2,0.1-0.3,0.1
			c-0.1,0-0.2,0.1-0.4,0.2l-8.6,4l-0.7-1.6l8.4-3.9c1.7-0.8,2.8-1.7,3.3-2.7c0.5-1,0.4-2-0.1-3.1c-0.5-1.1-1.2-1.9-2.1-2.3
			s-1.8-0.5-2.9-0.3l-10.2,4.7l-0.7-1.6l14.4-6.6L352,219.3z"/>
		<path d="M366.2,250.1l-2.4,1.3c1.1,0.1,2.1,0.4,2.9,0.9c0.8,0.6,1.5,1.4,2,2.4c0.7,1.6,0.8,3,0.2,4.2c-0.6,1.3-1.9,2.3-3.9,3.3
			l-8.8,4l-0.7-1.6l8.8-4c1.7-0.8,2.7-1.6,3.1-2.5c0.4-0.9,0.3-2-0.2-3.1c-0.5-1.1-1.2-1.9-2.1-2.4c-0.9-0.4-1.9-0.6-2.9-0.5
			l-10.2,4.7l-0.7-1.6l14.4-6.6L366.2,250.1z"/>
		<path d="M358.9,272.3l-0.7-1.6l14.4-6.6l0.7,1.6L358.9,272.3z M377.5,263.8l-0.7-1.6l2.2-1l0.7,1.6L377.5,263.8z"/>
		<path d="M364.5,281.5c0.5,1,1.2,1.8,2.1,2.3c1,0.5,2,0.5,3.1,0l0.7,1.4l-0.1,0.1c-1.3,0.6-2.7,0.6-4.1,0c-1.4-0.7-2.4-1.7-3.1-3.1
			c-0.9-1.9-0.9-3.7,0-5.4s2.3-3,4.4-4l0.6-0.3c2.1-1,4.1-1.2,5.9-0.8s3.2,1.6,4.1,3.5c0.7,1.5,0.8,3,0.4,4.5
			c-0.5,1.5-1.5,2.5-3,3.2l-0.1,0l-0.7-1.4c1.2-0.5,1.9-1.3,2.2-2.4c0.3-1.1,0.3-2.2-0.2-3.2c-0.7-1.5-1.8-2.4-3.2-2.6
			c-1.4-0.2-3,0-4.7,0.8l-0.6,0.3c-1.7,0.8-2.9,1.8-3.7,3C363.8,278.6,363.8,280,364.5,281.5z"/>
		<path d="M375.9,290.8l-0.8-1.7l-7,3.2l-0.7-1.6l20.8-9.5l0.7,1.6l-12.4,5.7l0.7,1.5l8.6,2.8l0.9,1.9l-0.1,0.1l-9.3-2.9l-4.8,9.9
			l-0.1,0l-0.8-1.8L375.9,290.8z"/>
		<path d="M388.6,298.9l-2.4,1.3c1.1,0.1,2.1,0.4,2.9,0.9c0.8,0.6,1.5,1.4,2,2.4c0.7,1.6,0.8,3,0.2,4.2c-0.6,1.3-1.9,2.3-3.9,3.3
			l-8.8,4l-0.7-1.6l8.8-4c1.7-0.8,2.7-1.6,3.1-2.5c0.4-0.9,0.3-2-0.2-3.1c-0.5-1.1-1.2-1.9-2.1-2.4c-0.9-0.4-1.9-0.6-2.9-0.5
			l-10.2,4.7l-0.7-1.6l14.4-6.6L388.6,298.9z"/>
		<path d="M384.7,328.4c0.5-0.3,0.9-0.6,1.2-0.8s0.7-0.4,1.1-0.6c-1-0.1-2-0.5-2.9-1.2c-0.9-0.7-1.7-1.6-2.2-2.7
			c-0.6-1.4-0.8-2.7-0.4-3.8c0.4-1.1,1.2-2,2.5-2.6c1.3-0.6,2.6-0.5,3.9,0.3s2.4,2,3.2,3.8l1.6,3.5l1.8-0.8c1-0.5,1.7-1.2,2-2.1
			c0.3-0.9,0.2-2-0.4-3.2c-0.5-1.1-1.2-1.9-2-2.3c-0.8-0.4-1.7-0.5-2.5-0.1l-0.7-1.5l0.1-0.1c1.1-0.6,2.2-0.5,3.5,0.1
			c1.3,0.6,2.3,1.7,3,3.3c0.7,1.6,0.9,3,0.5,4.4c-0.4,1.3-1.3,2.3-2.8,3l-7.1,3.3c-0.5,0.2-1,0.5-1.4,0.8c-0.5,0.3-0.9,0.6-1.3,0.9
			L384.7,328.4z M383.4,322.6c0.6,1.2,1.3,2.2,2.3,2.8c1,0.6,2,0.9,3.1,0.8l2.8-1.3l-1.6-3.6c-0.6-1.3-1.4-2.2-2.4-2.8
			s-1.9-0.6-2.8-0.2c-0.8,0.4-1.3,0.9-1.6,1.7C382.9,320.8,383,321.7,383.4,322.6z"/>
		<path d="M402.3,328.7l-2.3,1.2c1,0.1,2,0.4,2.8,1c0.8,0.6,1.5,1.4,1.9,2.4c0.5,1.1,0.7,2.1,0.5,3.1c-0.2,1-0.8,1.9-1.7,2.7
			c1.2,0,2.3,0.2,3.2,0.8c0.9,0.5,1.7,1.4,2.2,2.5c0.7,1.5,0.7,3,0.1,4.3c-0.6,1.3-2,2.5-4.2,3.4l-8.4,3.9l-0.7-1.6l8.4-3.9
			c1.8-0.8,2.9-1.7,3.3-2.7c0.4-1,0.4-2-0.1-3.1c-0.6-1.2-1.4-2-2.4-2.3c-1-0.3-2.2-0.3-3.5,0.1c-0.1,0-0.2,0.1-0.3,0.1
			c-0.1,0-0.2,0.1-0.4,0.2l-8.6,4l-0.7-1.6l8.4-3.9c1.7-0.8,2.8-1.7,3.3-2.7c0.5-1,0.4-2-0.1-3.1c-0.5-1.1-1.2-1.9-2.1-2.3
			c-0.9-0.4-1.8-0.5-2.9-0.3l-10.2,4.7l-0.7-1.6l14.4-6.6L402.3,328.7z"/>
		<path d="M400.6,363.7c-0.9-1.9-0.9-3.7-0.1-5.4c0.8-1.8,2.2-3.1,4.3-4.1l0.7-0.3c2.1-1,4.1-1.2,5.9-0.6c1.9,0.6,3.2,1.7,4,3.4
			c0.8,1.7,0.9,3.4,0.2,4.8c-0.7,1.5-2,2.6-3.9,3.5l-1.2,0.6l-4.6-10l-0.4,0.2c-1.6,0.8-2.8,1.8-3.5,3.1c-0.7,1.3-0.7,2.7,0,4.2
			c0.4,0.9,0.9,1.6,1.5,2.2c0.6,0.6,1.3,1,2,1.3l-0.8,1.2c-0.8-0.3-1.5-0.7-2.2-1.4C401.8,365.8,401.1,364.9,400.6,363.7z
			 M414.1,357.3c-0.6-1.2-1.5-2-2.7-2.4c-1.2-0.4-2.6-0.3-4,0.1l-0.1,0.1l3.8,8.3l0.3-0.2c1.3-0.6,2.2-1.4,2.7-2.5
			C414.7,359.7,414.7,358.6,414.1,357.3z"/>
		<path d="M277.6,174.6c-0.9-0.1-1.9-0.6-3.1-1.5c-1.1-0.9-2.1-2.2-2.9-3.9c-1-2.2-1.1-4.4-0.2-6.5c0.9-2.1,2.5-3.7,5-4.9l3.6-1.6
			c2.4-1.1,4.7-1.3,6.8-0.6c2.1,0.7,3.7,2.1,4.7,4.3c1,2.1,1.2,4,0.6,5.8c-0.5,1.7-1.7,3-3.4,3.7l-0.1,0l-0.7-1.5
			c1.3-0.6,2.2-1.6,2.7-2.9c0.4-1.3,0.3-2.8-0.5-4.5c-0.8-1.7-2.1-2.9-3.8-3.3c-1.8-0.5-3.6-0.3-5.6,0.6l-3.6,1.6
			c-2,0.9-3.4,2.2-4.2,4c-0.8,1.7-0.8,3.4,0,5.2c0.6,1.4,1.3,2.4,2.1,3c0.8,0.7,1.6,1.1,2.2,1.1l5-2.3l-2.4-5.2l1.4-0.6l3.1,6.8
			L277.6,174.6z"/>
		<path d="M279.3,186c-0.9-1.9-0.9-3.7-0.1-5.4c0.8-1.8,2.2-3.1,4.3-4.1l0.7-0.3c2.1-1,4.1-1.2,5.9-0.6c1.9,0.6,3.2,1.7,4,3.4
			c0.8,1.7,0.9,3.4,0.2,4.8s-2,2.6-3.9,3.5l-1.2,0.6l-4.6-10l-0.4,0.2c-1.6,0.8-2.8,1.8-3.5,3.1c-0.7,1.3-0.7,2.7,0,4.2
			c0.4,0.9,0.9,1.6,1.5,2.2c0.6,0.6,1.3,1,2,1.3l-0.8,1.2c-0.8-0.3-1.5-0.7-2.2-1.4C280.5,188,279.9,187.1,279.3,186z M292.9,179.6
			c-0.6-1.2-1.5-2-2.7-2.4c-1.2-0.4-2.6-0.3-4,0.2l-0.1,0.1l3.8,8.3l0.3-0.2c1.3-0.6,2.2-1.4,2.7-2.5
			C293.5,182,293.4,180.9,292.9,179.6z"/>
		<path d="M298.6,189.2l-2.4,1.3c1.1,0.1,2.1,0.4,2.9,0.9c0.8,0.6,1.5,1.4,2,2.4c0.7,1.6,0.8,3,0.2,4.2c-0.6,1.3-1.9,2.3-3.9,3.3
			l-8.8,4l-0.7-1.6l8.8-4c1.7-0.8,2.7-1.6,3.1-2.5c0.4-0.9,0.3-2-0.2-3.1c-0.5-1.1-1.2-1.9-2.1-2.4c-0.9-0.4-1.9-0.6-2.9-0.5
			l-10.2,4.7l-0.7-1.6l14.4-6.6L298.6,189.2z"/>
		<path d="M292.7,215.2c-0.9-1.9-0.9-3.7-0.1-5.4c0.8-1.8,2.2-3.1,4.3-4.1l0.7-0.3c2.1-1,4.1-1.2,5.9-0.6c1.9,0.6,3.2,1.7,4,3.4
			c0.8,1.7,0.9,3.4,0.2,4.8c-0.7,1.5-2,2.6-3.9,3.5l-1.2,0.6l-4.6-10l-0.4,0.2c-1.6,0.8-2.8,1.8-3.5,3.1c-0.7,1.3-0.7,2.7,0,4.2
			c0.4,0.9,0.9,1.6,1.5,2.2c0.6,0.6,1.3,1,2,1.3l-0.8,1.2c-0.8-0.3-1.5-0.7-2.2-1.4C293.9,217.3,293.3,216.3,292.7,215.2z
			 M306.3,208.8c-0.6-1.2-1.5-2-2.7-2.4c-1.2-0.4-2.6-0.3-4,0.2l-0.1,0.1l3.8,8.3l0.3-0.2c1.3-0.6,2.2-1.4,2.7-2.5
			C306.9,211.2,306.8,210.1,306.3,208.8z"/>
		<path d="M313,224.2l-0.4-1.2c-0.5-1-1.1-1.7-2-2.1c-0.9-0.4-1.8-0.5-3-0.3l-9.9,4.6l-0.7-1.6l14.4-6.6l0.6,1.4l-2.3,1.3l-0.2,0.1
			c1.1,0,2,0.3,2.8,0.7c0.8,0.5,1.5,1.2,1.9,2.2c0.1,0.2,0.2,0.4,0.2,0.6c0,0.2,0.1,0.4,0.1,0.5L313,224.2z"/>
		<path d="M305.4,242.1c0.5-0.3,0.9-0.6,1.2-0.8c0.3-0.2,0.7-0.4,1.1-0.6c-1-0.1-2-0.5-2.9-1.2c-0.9-0.7-1.7-1.6-2.2-2.7
			c-0.6-1.4-0.8-2.7-0.4-3.8c0.4-1.1,1.2-2,2.5-2.6c1.3-0.6,2.6-0.5,3.9,0.3s2.4,2,3.2,3.8l1.6,3.5l1.8-0.8c1-0.5,1.7-1.2,2-2.1
			c0.3-0.9,0.2-2-0.4-3.2c-0.5-1.1-1.2-1.8-2-2.3c-0.8-0.4-1.7-0.5-2.5-0.1l-0.7-1.5l0.1-0.1c1.1-0.6,2.2-0.5,3.5,0.1s2.3,1.7,3,3.3
			c0.7,1.6,0.9,3,0.5,4.4c-0.4,1.3-1.3,2.3-2.8,3l-7.1,3.3c-0.5,0.2-1,0.5-1.4,0.8c-0.5,0.3-0.9,0.6-1.3,0.9L305.4,242.1z
			 M304.1,236.2c0.6,1.2,1.3,2.2,2.3,2.8c1,0.6,2,0.9,3.1,0.8l2.8-1.3l-1.6-3.6c-0.6-1.3-1.4-2.2-2.4-2.8c-1-0.6-1.9-0.6-2.8-0.2
			c-0.8,0.4-1.4,0.9-1.6,1.7C303.6,234.4,303.7,235.3,304.1,236.2z"/>
		<path d="M327.2,241.8l-3.7,1.7l1.5,3.2l-1.3,0.6l-1.5-3.2l-9.4,4.3c-0.9,0.4-1.5,0.9-1.8,1.4c-0.2,0.5-0.2,1.1,0,1.6
			c0.1,0.2,0.2,0.4,0.3,0.6c0.1,0.2,0.2,0.4,0.4,0.6l-1.1,0.8c-0.2-0.2-0.4-0.4-0.6-0.7c-0.2-0.3-0.4-0.6-0.5-0.9
			c-0.5-1-0.5-1.9-0.1-2.8c0.4-0.9,1.3-1.6,2.6-2.2l9.4-4.3l-1.1-2.5l1.3-0.6l1.1,2.5l3.7-1.7L327.2,241.8z"/>
		<path d="M319,252.1c2.1-1,4.1-1.2,6-0.7c1.9,0.5,3.3,1.8,4.2,3.7c0.9,1.9,0.9,3.8,0.1,5.6c-0.8,1.8-2.3,3.2-4.4,4.1l-0.4,0.2
			c-2.1,1-4.1,1.2-6,0.7c-1.9-0.5-3.3-1.8-4.1-3.7c-0.9-1.9-0.9-3.8-0.1-5.6s2.3-3.2,4.4-4.1L319,252.1z M319.3,253.9
			c-1.7,0.8-2.9,1.8-3.6,3.2c-0.8,1.4-0.8,2.8-0.1,4.3c0.7,1.5,1.8,2.4,3.3,2.7c1.5,0.3,3.1,0.1,4.8-0.7l0.4-0.2
			c1.6-0.8,2.8-1.8,3.6-3.2s0.8-2.8,0.1-4.3s-1.8-2.4-3.3-2.7s-3.1-0.1-4.8,0.7L319.3,253.9z"/>
		<path d="M335,272.1l-0.4-1.2c-0.5-1-1.1-1.7-2-2.1c-0.9-0.4-1.8-0.5-3-0.3l-9.9,4.6l-0.7-1.6l14.4-6.6l0.6,1.4l-2.3,1.3l-0.2,0.1
			c1.1,0,2,0.3,2.8,0.7c0.8,0.5,1.5,1.2,1.9,2.2c0.1,0.2,0.2,0.4,0.2,0.6c0,0.2,0.1,0.4,0.1,0.5L335,272.1z"/>
	</g>
</g>
<g id="Шар_10">
	<path class="st0" d="M153.3,316.2c5.7-0.7,12.4-5.2,14-11c3.4-12.4-22.4-17.9-21-33.8c0.9-10.3,5.3-15.3,19.3-13.1
		s5.9,27.4,21,33.9c7.2,3.1,15.6,4.1,21-1.3c8.7-8.7,1.6-20.3,10.4-29.4c6-6.1,14.8-6.9,20.7-3.3c8.9,5.4,12.9,20.9,2.9,33.1
		c-2.7,3.3-4.9,6.8-6.4,12c-1.9,6.9,2.2,10.3,6.4,11.6c5.2,1.6,11.1-1.4,19.1-1.1c7,0.2,11.4,6.4,9.6,13.9s-7.9,8.6-14.3,9.4
		c-6.4,0.9-15.7,0.2-19.2,1.2c-3.6,1-7.2,3.6-4.8,9.4c2.4,5.9,15.9,7.2,24,16.7c5.7,6.7,10,19.7,2.4,23.3c-5.7,2.8-11.3,3-18.1-4.4
		c-5.3-5.8-21.4-31.4-29.3-25.2s0.2,18.7-2.5,24.2s-4.9,6.9-10.4,5.7c-5.6-1.2-8.6-4.4-10.2-8.2c-1.7-3.8,4.2-21.7,1.1-26.7
		c-3.2-5-10.4-3.8-13.5-0.2c-3.1,3.6-8.4,22.7-16.2,27.3c-7.8,4.7-16.9,0.7-20-3.1c-3.1-3.8-2.6-10.9,0-16.7
		c5.2-11.5,18.4-15.3,19.3-22s-3.5-8.2-6.9-9.2c-9.4-2.7-14.2,8.6-22.7,6.4c-6.9-1.8-13-10.7-11-17.3c1.6-5.1,8-10.7,13.2-11.2
		C141.1,306.1,144.5,317.3,153.3,316.2z"/>
</g>
<g id="Шар_5">
	<path class="st0" d="M241.7,144.5c5.9-5.9,10.5-13,13.5-21"/>
	<path class="st0" d="M258.8,106.2c0.1-1.1,0.1-2.2,0.1-3.3c0-32.6-26.4-59-59.1-59c-32.6,0-59.1,26.4-59.1,59
		c0,17.7,7.8,33.6,20.1,44.4c8,7.1,18,12,29,13.8c3.2,0.6,6.6,0.8,9.9,0.8c5.1,0,10-0.6,14.8-1.9h0"/>
	<path class="st0" d="M250.3,151.4c6.3-6.6,11.4-14.4,14.8-23"/>
	<path class="st0" d="M269.9,104.6c0-0.6,0-1.1,0-1.7c0-38.7-31.4-70.1-70.1-70.1s-70.1,31.4-70.1,70.1c0,19.6,8,37.2,20.9,49.9
		c10.2,10,23.4,16.9,38.2,19.2c0,0,0,0,0.1,0c3.5,0.5,7.2,0.8,10.9,0.8c5.7,0,11.3-0.7,16.6-2"/>
</g>
</svg>
