<?xml version="1.0" encoding="utf-8"?>
<!-- Generator: Adobe Illustrator 25.3.1, SVG Export Plug-In . SVG Version: 6.00 Build 0)  -->
<svg version="1.1" id="Шар_13" xmlns="http://www.w3.org/2000/svg" xmlns:xlink="http://www.w3.org/1999/xlink" x="0px" y="0px"
	 viewBox="0 0 512 512" style="enable-background:new 0 0 512 512;" xml:space="preserve">
<path d="M431.5,372.7c-9,23.9-26.8,42.8-50,53.3c-12.5,5.6-25.6,8.5-39.2,8.5c-18.4,0-36.8-5.5-52.3-15.5c0.5-1.5,1-3,1.5-4.5
	c0.2-0.8,0.5-1.6,0.7-2.4c14.7,10,32.4,15.5,50.1,15.5c12.6,0,24.8-2.6,36.4-7.9c21.5-9.7,38-27.3,46.4-49.4
	c8.4-22.1,7.6-46.2-2.1-67.7l-64.4-142.7c-14.3-31.7-46-52.1-80.7-52.1c-2.5,0-5,0.1-7.5,0.3c-3.6,0.3-7.2,0.8-10.7,1.6
	c-6.3,1.3-12.4,3.3-18.2,6c-10.9,4.9-20.5,11.8-28.4,20.4c-2.2-0.3-4.5-0.5-6.8-0.7c-0.6,0-1.2-0.1-1.8-0.1c9.2-11.1,21-20,34.2-26
	c5.8-2.6,11.8-4.7,18-6.1c0.6-0.1,1.1-0.3,1.7-0.4c1.1-0.2,2.2-0.4,3.3-0.6c2-0.3,4-0.6,6-0.9c0.7-0.1,1.5-0.1,2.2-0.2
	c0.9-0.1,1.8-0.2,2.8-0.2c1.7-0.1,3.5-0.2,5.3-0.2c37.5,0,71.7,22.1,87.1,56.2l64.4,142.7C439.7,322.9,440.5,348.9,431.5,372.7z"/>
<path d="M270.6,316.1c-2.3-3-5.8-4.8-9.7-4.9c-3.8-0.1-7.2,0.4-10.1,0.9c-3.2,0.5-6,1-8.3,0.3c-3-0.9-6.2-3.1-4.7-8.5
	c1.4-5.1,3.7-8.3,5.9-11.1c5.2-6.4,7.3-14.1,6-21.8c-1.1-6.5-4.7-12.1-9.6-15c-7.4-4.5-17.3-2.9-23.8,3.7c-5.1,5.2-5.6,11.2-6,16.5
	c-0.4,5-0.8,9.2-4.4,12.9c-5.2,5.2-13.7,2.8-18.2,0.8c-6.4-2.7-7.9-9.6-9.5-16.9c-1.6-7.4-3.4-15.8-12.1-17.2
	c-7.6-1.2-12.9-0.5-16.6,2.4c-3.3,2.6-5.1,6.7-5.7,13c-0.9,9.5,6.3,15.5,12.6,20.8c6,5,9.6,8.4,8.4,12.5c-0.7,2.4-2.5,4.6-4.7,6.2
	c-2.2,1.6-4.9,2.7-7.2,3c-3.1,0.4-5.3-1.2-8.6-3.9c-3.5-2.8-7.4-5.9-13.4-5.3c-6.1,0.6-13.5,6.8-15.4,13c-1.1,3.4-0.5,7.5,1.7,11.3
	c2.5,4.5,6.8,8,11,9.1c5.1,1.3,9.1-1.2,12.6-3.5c3.4-2.2,6.2-4,10-2.9c4,1.1,5.6,2.3,5.1,6.4c-0.3,2.1-3.2,4.4-6.5,7
	c-4.3,3.4-9.7,7.6-12.7,14.3c-2.7,6.1-3.7,14.4,0.3,19.3c4,4.8,14.5,8.9,23.2,3.7c5.8-3.5,9.9-12.9,13.2-20.6
	c1.4-3.1,2.8-6.3,3.6-7.3c1.3-1.5,3.7-2.4,5.8-2.2c1.7,0.1,2.9,0.8,3.7,2.1c1.3,2,0.1,9.5-0.7,14.4c-1,6.2-1.5,9.8-0.6,12
	c2.3,5.2,6.3,8.4,12,9.7c7.4,1.6,10.3-1.2,13.2-7c1.4-2.9,0.8-6.5,0-10.4c-1.1-6.1-1.6-10.3,1.8-12.9c0.5-0.4,1-0.5,1.6-0.4
	c5.4,0.7,14.7,12.9,19.6,19.4c2,2.6,3.5,4.6,4.7,5.9c4.3,4.7,8.5,7,13.2,7c2.5,0,5.1-0.7,7.9-2c2.7-1.3,4.5-3.7,5.2-6.8
	c1.4-6.5-2.4-15.2-6.8-20.4c-4.6-5.4-10.7-8.3-15.6-10.6c-3.7-1.8-7.2-3.5-8-5.4c-0.7-1.6-0.8-2.9-0.3-3.8c0.6-1.3,2.5-2,3.5-2.3
	c1.6-0.4,5-0.5,8.4-0.6c3.4-0.1,7.2-0.1,10.5-0.6c6-0.8,14.1-2,16.4-11.3C273.8,323.7,273,319.3,270.6,316.1z M267.9,327
	c-1.4,5.7-5.5,6.6-12.2,7.6c-2.9,0.4-6.4,0.5-9.9,0.5c-4,0.1-7.5,0.1-9.7,0.8c-3.2,0.9-5.5,2.6-6.6,4.9c-1.1,2.3-1,4.9,0.2,7.9
	c1.5,3.7,5.7,5.7,10.5,8c4.7,2.2,10,4.8,13.9,9.3c3.5,4.1,6.7,11.5,5.7,16.1c-0.3,1.6-1.1,2.7-2.5,3.3c-5,2.4-9.3,2.6-15.2-3.9
	c-1-1.1-2.6-3.2-4.4-5.6c-8.2-10.8-16.1-20.5-23-21.4c-0.3,0-0.7-0.1-1-0.1c-1.6,0-3.1,0.5-4.3,1.5c-6,4.7-4.6,11.9-3.6,17.7
	c0.5,2.9,1.1,5.9,0.4,7.3c-2.3,4.6-3.4,5.3-7.6,4.4c-4.1-0.9-6.8-3.1-8.5-6.8c-0.4-1.1,0.4-6,0.9-9.2c1.1-7,2.3-14.2,0-17.8
	c-1.7-2.6-4.4-4.2-7.6-4.5c-3.7-0.3-7.6,1.3-9.9,3.9c-1.3,1.5-2.6,4.5-4.4,8.6c-2.9,6.6-6.8,15.6-11.2,18.3
	c-6.5,3.9-14.3,0.5-16.8-2.6c-2.2-2.7-2.1-8.6,0.3-14c2.5-5.5,7.1-9.2,11.2-12.4c4.2-3.3,7.8-6.1,8.3-10.3c1.2-9.1-6-11.2-8.7-11.9
	c-5.9-1.7-10.4,1.2-14.1,3.6c-3.5,2.2-5.8,3.6-8.6,2.8c-3-0.8-6.1-3.4-7.9-6.7c-1.5-2.6-1.9-5.3-1.3-7.5c1.3-4.2,7-9.1,11.1-9.5
	c4-0.4,6.7,1.8,9.8,4.3c3.3,2.6,7,5.6,12.4,4.9c6.4-0.8,14.2-5.7,16.1-12.8c2.1-7.6-4.1-12.7-10-17.7c-5.7-4.7-11.5-9.6-10.9-16.5
	c0.4-4.8,1.6-7.8,3.8-9.5c2.5-1.9,6.6-2.4,12.7-1.4c5,0.8,6.3,5.6,8,13.3c1.7,7.8,3.6,16.6,12.4,20.4c9.9,4.2,18.3,3.5,23.8-1.9
	c5-5,5.5-10.9,5.9-16.1c0.4-4.9,0.8-9.5,4.6-13.4c5.4-5.5,13.1-5.7,17.6-2.9c3.7,2.2,6.4,6.6,7.2,11.6c1.1,6.2-0.7,12.5-4.9,17.8
	c-2.6,3.2-5.2,6.9-6.9,12.9c-2.3,8.3,2.7,13,8.1,14.6c3.4,1,6.9,0.5,10.6-0.2c2.8-0.5,5.8-1,9.1-0.8c2.5,0.1,4.6,1.1,5.9,2.9
	C268.2,321.2,268.6,324,267.9,327z"/>
<g>
	<path d="M323.7,144.5l-3-6.5l-19.4,8.9l0.7,1.6l8.8-4l2.5,5.3c0.6,1.4,0.8,2.6,0.4,3.7c-0.3,1.1-1.1,1.9-2.3,2.5l-1.8,0.8
		c-0.6,0.3-1.2,0.6-1.7,1c-0.5,0.4-0.9,0.8-1,1.3l0.7,1.6l0.3-0.2c0.2-0.5,0.4-0.9,0.8-1.2c0.4-0.4,0.9-0.7,1.5-1l1.8-0.8
		c1.2-0.5,2-1.2,2.6-2.1c0.5-0.9,0.7-2,0.4-3.3c0.9,0.9,1.8,1.5,2.9,1.7c1.1,0.2,2.1,0.1,3.2-0.4c1.7-0.8,2.8-2,3.2-3.5
		C324.9,148.4,324.6,146.6,323.7,144.5z M323,149.2c-0.3,1.1-1.1,2-2.4,2.5c-1.2,0.6-2.3,0.6-3.4,0.1c-1.1-0.5-2-1.6-2.8-3.3
		l-2.2-4.7l7.9-3.6l2.2,4.9C323.1,146.8,323.3,148.1,323,149.2z"/>
	<path d="M326.4,162.8c-0.7-1.6-1.7-2.7-3-3.3c-1.3-0.6-2.4-0.6-3.5-0.1l-0.1,0.1l0.7,1.5c0.8-0.4,1.6-0.3,2.5,0.1
		c0.8,0.4,1.5,1.2,2,2.3c0.5,1.2,0.7,2.2,0.4,3.2c-0.3,0.9-1,1.6-2,2.1l-1.8,0.8l-1.6-3.5c-0.8-1.8-1.9-3.1-3.2-3.8
		c-1.3-0.8-2.6-0.8-3.9-0.2c-1.3,0.6-2.1,1.4-2.5,2.6c-0.4,1.1-0.3,2.4,0.4,3.8c0.5,1.2,1.3,2.1,2.2,2.7c0.9,0.7,1.9,1.1,2.9,1.2
		c-0.4,0.2-0.8,0.4-1.1,0.6c-0.3,0.2-0.7,0.5-1.2,0.8l0.8,1.7c0.4-0.3,0.8-0.7,1.3-0.9c0.5-0.3,0.9-0.5,1.4-0.8l7.1-3.2
		c1.5-0.7,2.5-1.7,2.8-3C327.3,165.8,327.1,164.4,326.4,162.8z M317.7,171.3c-1.1,0.1-2.1-0.2-3.1-0.8s-1.8-1.6-2.3-2.8
		c-0.4-0.9-0.5-1.8-0.3-2.6c0.2-0.8,0.8-1.3,1.6-1.7c0.9-0.4,1.8-0.3,2.8,0.2c1,0.6,1.8,1.5,2.4,2.8l1.6,3.6L317.7,171.3z"/>
	<path d="M333.6,178.5c-0.5-1.1-1.2-1.9-2-2.4c-0.8-0.6-1.8-0.9-2.9-0.9l2.4-1.3l-0.7-1.4l-14.4,6.6l0.7,1.6L327,176
		c1.1-0.1,2.1,0,2.9,0.5c0.9,0.4,1.6,1.2,2.1,2.4c0.5,1.1,0.6,2.2,0.2,3.1s-1.4,1.8-3.1,2.5l-8.8,4l0.7,1.6l8.8-4
		c2-0.9,3.3-2,3.9-3.3C334.4,181.5,334.3,180.1,333.6,178.5z"/>
	<path d="M348.1,194l-8.5,3.9c0.5-0.8,0.8-1.7,0.9-2.7c0.1-0.9-0.1-1.9-0.6-2.9c-0.8-1.7-2.1-2.8-3.9-3.1c-1.8-0.3-3.9,0-6.2,1.1
		l-0.3,0.1c-2.2,1-3.7,2.3-4.5,3.8c-0.8,1.6-0.9,3.2-0.1,4.9c0.5,1,1.1,1.8,1.8,2.4c0.8,0.6,1.6,0.9,2.6,1l-2,1.2l0.6,1.3l20.8-9.5
		L348.1,194z M339.2,196.2c-0.2,0.9-0.6,1.7-1.3,2.5l-6.8,3.1c-1,0-1.9-0.2-2.6-0.7c-0.8-0.5-1.4-1.2-1.9-2.3
		c-0.6-1.4-0.6-2.7,0.1-3.9c0.7-1.2,1.9-2.2,3.7-3l0.3-0.1c1.8-0.8,3.5-1.2,5-1c1.5,0.2,2.5,1,3.2,2.4
		C339.2,194.4,339.4,195.3,339.2,196.2z"/>
	<path d="M347.2,208.1c-0.9-1.9-2.3-3.1-4.2-3.7c-1.9-0.5-3.9-0.3-6,0.6l-0.4,0.2c-2.1,1-3.6,2.4-4.4,4.2c-0.8,1.8-0.8,3.6,0.1,5.6
		c0.9,1.9,2.3,3.1,4.1,3.7c1.9,0.5,3.9,0.3,6-0.7l0.4-0.2c2.1-1,3.6-2.3,4.4-4.1C348.1,211.9,348.1,210,347.2,208.1z M345.8,213
		c-0.8,1.4-2,2.4-3.6,3.2l-0.4,0.2c-1.7,0.8-3.3,1-4.8,0.7c-1.5-0.3-2.6-1.2-3.3-2.7c-0.7-1.5-0.7-2.9,0.1-4.3
		c0.8-1.4,2-2.4,3.6-3.2l0.4-0.2c1.6-0.8,3.2-1,4.8-0.7c1.5,0.3,2.6,1.2,3.3,2.7C346.5,210.2,346.5,211.7,345.8,213z"/>
	<path d="M358.7,233c-0.5-1.1-1.2-2-2.2-2.5c-0.9-0.5-2-0.8-3.2-0.8c0.9-0.8,1.5-1.7,1.7-2.7c0.2-1,0-2-0.5-3.1
		c-0.5-1.1-1.1-1.9-1.9-2.4c-0.8-0.5-1.7-0.9-2.8-1l2.3-1.2l-0.7-1.4l-14.4,6.6l0.7,1.6l10.2-4.7c1.1-0.2,2.1-0.1,2.9,0.3
		c0.9,0.4,1.6,1.2,2.1,2.3c0.5,1.1,0.5,2.1,0.1,3.1c-0.5,1-1.6,1.9-3.3,2.7l-8.4,3.9l0.7,1.6l8.6-4c0.2-0.1,0.3-0.1,0.4-0.2
		c0.1-0.1,0.2-0.1,0.3-0.1c1.2-0.4,2.4-0.4,3.5,0c1,0.3,1.8,1.1,2.4,2.3c0.5,1.1,0.5,2.1,0.1,3.1c-0.4,1-1.6,1.9-3.3,2.7l-8.4,3.9
		l0.7,1.6l8.4-3.9c2.1-1,3.5-2.1,4.2-3.4C359.4,236,359.4,234.5,358.7,233z"/>
	<path d="M368.7,254.8c-0.5-1.1-1.2-1.9-2-2.4c-0.8-0.6-1.8-0.9-2.9-0.9l2.4-1.3l-0.7-1.4l-14.4,6.6l0.7,1.6l10.2-4.7
		c1.1-0.1,2.1,0,2.9,0.5s1.6,1.2,2.1,2.4c0.5,1.1,0.6,2.2,0.2,3.1c-0.4,0.9-1.4,1.8-3.1,2.5l-8.8,4l0.7,1.6l8.8-4
		c2-0.9,3.3-2,3.9-3.3C369.5,257.8,369.4,256.4,368.7,254.8z"/>
	<path d="M372.6,264.1l-14.4,6.6l0.7,1.6l14.4-6.6L372.6,264.1z M379,261.2l-2.2,1l0.7,1.6l2.2-1L379,261.2z"/>
	<path d="M378,275.2c-0.9-1.9-2.2-3.1-4.1-3.5c-1.8-0.4-3.8-0.2-5.9,0.8l-0.6,0.3c-2.1,1-3.6,2.3-4.4,4s-0.8,3.5,0,5.4
		c0.7,1.4,1.7,2.5,3.1,3.1c1.4,0.7,2.8,0.7,4.1,0l0.1-0.1l-0.7-1.4c-1.1,0.5-2.1,0.5-3.1,0c-1-0.5-1.7-1.3-2.1-2.3
		c-0.7-1.5-0.7-2.9,0.1-4.1c0.8-1.2,2-2.3,3.7-3l0.6-0.2c1.7-0.8,3.2-1,4.7-0.8c1.5,0.2,2.5,1.1,3.2,2.6c0.5,1.1,0.6,2.2,0.2,3.2
		c-0.3,1.1-1.1,1.9-2.2,2.4l0.7,1.4l0.1,0c1.5-0.7,2.5-1.7,3-3.2C378.9,278.3,378.8,276.8,378,275.2z"/>
	<path d="M377.2,290l-0.7-1.5l12.4-5.7l-0.7-1.6l-20.8,9.5l0.7,1.6l7-3.2l0.8,1.7l-4.3,9.1l0.8,1.8l0.1,0l4.8-9.9l9.2,2.9l0-0.1
		l-0.9-1.9L377.2,290z"/>
	<path d="M391.1,303.6c-0.5-1.1-1.2-1.9-2-2.5c-0.8-0.6-1.8-0.9-2.9-0.9l2.4-1.3l-0.6-1.4l-14.4,6.6l0.7,1.6l10.2-4.7
		c1.1-0.1,2.1,0,2.9,0.5c0.9,0.4,1.6,1.2,2.1,2.4c0.5,1.1,0.6,2.2,0.2,3.1c-0.4,0.9-1.4,1.8-3.1,2.5l-8.8,4l0.7,1.6l8.8-4
		c2-0.9,3.3-2,3.9-3.3C391.9,306.6,391.8,305.2,391.1,303.6z"/>
	<path d="M397.6,317.7c-0.7-1.6-1.7-2.7-3-3.3c-1.3-0.6-2.4-0.6-3.5-0.1l-0.1,0.1l0.7,1.5c0.8-0.4,1.6-0.4,2.5,0.1
		c0.8,0.4,1.5,1.2,2,2.3c0.5,1.2,0.7,2.2,0.4,3.2c-0.3,0.9-0.9,1.6-2,2.1l-1.8,0.8l-1.6-3.5c-0.8-1.8-1.9-3.1-3.2-3.8
		c-1.3-0.8-2.6-0.8-3.9-0.3c-1.3,0.6-2.1,1.5-2.5,2.6c-0.4,1.1-0.3,2.4,0.4,3.8c0.5,1.2,1.3,2.1,2.2,2.7c0.9,0.7,1.9,1.1,2.9,1.2
		c-0.4,0.2-0.7,0.4-1.1,0.6c-0.3,0.2-0.7,0.5-1.2,0.8l0.8,1.7c0.4-0.3,0.8-0.7,1.3-0.9c0.4-0.3,0.9-0.5,1.4-0.8l7.1-3.2
		c1.5-0.7,2.4-1.7,2.8-3S398.3,319.3,397.6,317.7z M388.8,326.2c-1.1,0.1-2.1-0.2-3.1-0.8c-1-0.6-1.8-1.6-2.3-2.8
		c-0.4-0.9-0.5-1.8-0.3-2.5c0.2-0.8,0.8-1.3,1.6-1.7c0.9-0.4,1.8-0.3,2.8,0.2c1,0.6,1.8,1.5,2.4,2.8l1.6,3.5L388.8,326.2z"/>
	<path d="M408.9,342.4c-0.5-1.1-1.2-2-2.2-2.5c-0.9-0.5-2-0.8-3.2-0.8c0.9-0.8,1.5-1.7,1.7-2.7s0-2-0.5-3.1c-0.5-1-1.1-1.9-1.9-2.4
		c-0.8-0.6-1.7-0.9-2.8-1l2.3-1.2l-0.6-1.4l-14.4,6.6l0.7,1.6l10.2-4.7c1.1-0.2,2-0.1,2.9,0.3c0.9,0.4,1.6,1.2,2.1,2.3
		c0.5,1.1,0.5,2.2,0.1,3.1c-0.5,1-1.6,1.9-3.3,2.7l-8.4,3.9l0.7,1.6l8.6-4c0.2-0.1,0.3-0.1,0.4-0.2c0.1,0,0.2-0.1,0.3-0.1
		c1.2-0.4,2.4-0.4,3.4,0c1,0.3,1.9,1.1,2.4,2.3c0.5,1.1,0.5,2.2,0.1,3.1c-0.4,1-1.5,1.9-3.3,2.7l-8.4,3.9l0.7,1.6l8.4-3.9
		c2.1-1,3.5-2.1,4.2-3.4C409.7,345.4,409.6,344,408.9,342.4z"/>
	<path d="M415.5,356.7c-0.8-1.7-2.1-2.9-4-3.4s-3.9-0.4-6,0.6l-0.7,0.3c-2.1,0.9-3.5,2.3-4.3,4.1c-0.8,1.8-0.8,3.6,0.1,5.5
		c0.5,1.1,1.2,2,1.9,2.7c0.7,0.7,1.5,1.1,2.2,1.4l0.8-1.2c-0.7-0.3-1.4-0.7-2-1.3c-0.6-0.6-1.1-1.3-1.5-2.2c-0.7-1.5-0.7-2.9,0-4.2
		c0.7-1.3,1.9-2.4,3.5-3.1l0.4-0.2l4.6,10l1.2-0.6c1.9-0.9,3.2-2,3.9-3.5C416.3,360.1,416.3,358.5,415.5,356.7z M414.2,360.8
		c-0.5,1-1.4,1.9-2.7,2.5l-0.3,0.1l-3.8-8.2l0.1-0.1c1.4-0.5,2.7-0.5,4-0.2c1.2,0.4,2.1,1.2,2.7,2.4
		C414.7,358.6,414.7,359.7,414.2,360.8z"/>
	<path d="M291.5,159.8c-1-2.2-2.6-3.6-4.7-4.3c-2.1-0.7-4.4-0.5-6.8,0.6l-3.5,1.6c-2.4,1.1-4.1,2.8-5,4.9c-0.6,1.4-0.7,2.7-0.5,4.1
		c0.1,0.8,0.4,1.6,0.7,2.4c0.8,1.8,1.8,3.1,2.9,3.9c0.9,0.7,1.8,1.2,2.6,1.4c0.2,0,0.3,0.1,0.5,0.1l6.8-3.1l-3.1-6.8l-1.4,0.6
		l2.4,5.2l-5,2.3c-0.7-0.1-1.4-0.5-2.2-1.1c-0.3-0.2-0.5-0.5-0.8-0.8c0-0.1-0.1-0.1-0.2-0.2c-0.4-0.6-0.8-1.2-1.2-2
		c-0.8-1.8-0.8-3.5-0.1-5.2c0.8-1.7,2.2-3,4.2-4l3.6-1.6c2-0.9,3.8-1.1,5.6-0.6c1.8,0.5,3,1.6,3.8,3.3c0.8,1.7,0.9,3.2,0.5,4.5
		c-0.5,1.3-1.3,2.3-2.7,2.9l0.7,1.5h0.1c1.7-0.8,2.9-2,3.4-3.7C292.6,163.9,292.4,161.9,291.5,159.8z"/>
	<path d="M294.2,179c-0.8-1.7-2.1-2.9-4-3.5c-1.9-0.5-3.9-0.3-6,0.6l-0.7,0.3c-1.4,0.6-2.5,1.5-3.3,2.5c-0.4,0.5-0.7,1-1,1.6
		c-0.8,1.8-0.7,3.6,0.1,5.5c0.5,1.1,1.2,2,1.9,2.7c0.7,0.7,1.5,1.1,2.2,1.4l0.8-1.2c-0.7-0.3-1.4-0.7-2-1.3
		c-0.6-0.6-1.1-1.3-1.5-2.2c-0.7-1.5-0.7-2.9,0-4.2c0.1-0.2,0.3-0.5,0.4-0.7c0.7-1,1.7-1.8,3.1-2.4l0.4-0.2l4.6,10l1.2-0.6
		c1.9-0.9,3.2-2,3.9-3.5C295.1,182.3,295,180.7,294.2,179z M292.9,183.1c-0.5,1-1.4,1.9-2.7,2.5l-0.3,0.2l-3.8-8.2l0.1-0.1
		c1.4-0.5,2.7-0.5,4-0.1c1.2,0.4,2.1,1.2,2.7,2.4C293.4,180.9,293.5,182,292.9,183.1z"/>
	<path d="M301.1,193.9c-0.5-1.1-1.2-1.9-2-2.5c-0.8-0.6-1.8-0.9-2.9-0.9l2.4-1.3l-0.6-1.4l-10.5,4.8l-4,1.8l0.7,1.6l3.9-1.8l6.3-2.9
		c1.1-0.1,2.1,0,3,0.5s1.6,1.2,2.1,2.4c0.5,1.1,0.6,2.2,0.2,3.1c-0.4,0.9-1.4,1.8-3.1,2.5l-5.5,2.5l-3.2,1.5l0.7,1.6l3-1.4l5.8-2.6
		c2-0.9,3.3-2,3.9-3.3C301.8,196.9,301.8,195.5,301.1,193.9z"/>
	<path d="M307.6,208.2c-0.8-1.7-2.1-2.9-4-3.4c-1.9-0.6-3.9-0.4-5.9,0.6l-0.7,0.3c-1.8,0.8-3.2,2-4,3.5c-0.1,0.2-0.2,0.4-0.3,0.6
		c-0.8,1.8-0.8,3.6,0.1,5.4c0.5,1.1,1.1,1.9,1.7,2.6c0,0,0.1,0.1,0.1,0.1c0.7,0.7,1.5,1.1,2.2,1.4l0.8-1.2c-0.7-0.3-1.4-0.7-2-1.3
		c-0.6-0.6-1.1-1.4-1.5-2.2c-0.1-0.1-0.1-0.2-0.1-0.3c-0.3-0.7-0.4-1.3-0.4-1.9c0-0.7,0.2-1.3,0.5-2c0.7-1.3,1.9-2.4,3.5-3.1
		l0.4-0.2l4.6,10l1.2-0.6c1.9-0.9,3.2-2,3.9-3.5C308.5,211.5,308.4,209.9,307.6,208.2z M306.3,212.3c-0.5,1.1-1.4,1.9-2.7,2.5
		l-0.3,0.2l-3.8-8.3l0.1-0.1c1.4-0.5,2.7-0.5,4-0.2c1.2,0.4,2.1,1.2,2.7,2.4C306.8,210.1,306.9,211.2,306.3,212.3z"/>
	<path d="M314.5,223.2c0-0.2-0.1-0.4-0.2-0.6c-0.4-1-1.1-1.7-1.9-2.2c-0.8-0.5-1.8-0.7-2.9-0.7l0.2-0.1l2.3-1.3l-0.6-1.4l-14.4,6.6
		l0.7,1.6l10-4.6c1.1-0.2,2.1-0.1,3,0.3c0.9,0.4,1.5,1.1,2,2.1l0.4,1.2l1.6-0.5C314.6,223.6,314.5,223.4,314.5,223.2z"/>
	<path d="M318.3,231.4c-0.7-1.6-1.7-2.7-3-3.3c-1.3-0.6-2.4-0.6-3.5-0.1l-0.1,0.1l0.7,1.5c0.8-0.4,1.6-0.3,2.5,0.1
		c0.8,0.4,1.5,1.2,2,2.3c0.5,1.2,0.7,2.2,0.4,3.2c-0.3,0.9-0.9,1.6-2,2.1l-1.8,0.8l-1.6-3.5c-0.8-1.8-1.9-3.1-3.2-3.8
		c-1.3-0.8-2.6-0.8-3.9-0.2c-1.3,0.6-2.1,1.5-2.5,2.6c-0.4,1.1-0.3,2.4,0.4,3.8c0.5,1.2,1.3,2.1,2.2,2.7c0.9,0.7,1.9,1.1,2.9,1.2
		c-0.4,0.2-0.7,0.4-1.1,0.6c-0.3,0.2-0.8,0.5-1.2,0.8l0.8,1.7c0.4-0.3,0.8-0.7,1.3-0.9c0.5-0.3,0.9-0.5,1.4-0.8l7.1-3.2
		c1.5-0.7,2.5-1.7,2.8-3C319.2,234.4,319,232.9,318.3,231.4z M309.5,239.8c-1.1,0.1-2.1-0.2-3.1-0.8c-1-0.6-1.8-1.6-2.3-2.8
		c-0.4-0.9-0.5-1.8-0.3-2.6c0.2-0.8,0.8-1.3,1.6-1.7c0.9-0.4,1.8-0.3,2.8,0.2c1,0.6,1.8,1.5,2.4,2.8l1.6,3.6L309.5,239.8z"/>
	<path d="M327.2,241.8l-0.7-1.6l-3.7,1.7l-1.1-2.5l-1.3,0.6l1.1,2.5l-9.4,4.3c-1.4,0.6-2.3,1.4-2.6,2.2c-0.4,0.8-0.3,1.8,0.1,2.8
		c0.1,0.3,0.3,0.6,0.5,0.9c0.2,0.3,0.4,0.5,0.6,0.7l1.1-0.8c-0.2-0.2-0.3-0.4-0.4-0.6c-0.1-0.2-0.2-0.4-0.3-0.5
		c-0.3-0.6-0.3-1.1,0-1.6c0.2-0.5,0.8-1,1.8-1.4l9.4-4.3l1.4,3.2l1.3-0.6l-1.5-3.2L327.2,241.8z"/>
	<path d="M329.2,255.1c-0.9-1.9-2.3-3.1-4.2-3.7c-1.9-0.5-3.9-0.3-6,0.7l-0.4,0.2c-2.1,1-3.6,2.4-4.4,4.1c-0.8,1.8-0.8,3.7,0.1,5.6
		c0.9,1.9,2.3,3.2,4.2,3.7c1.9,0.5,3.9,0.3,6-0.7l0.4-0.2c2.1-1,3.6-2.4,4.4-4.1C330.1,258.9,330.1,257,329.2,255.1z M327.7,260
		c-0.8,1.4-1.9,2.5-3.6,3.2l-0.4,0.2c-1.7,0.8-3.3,1-4.8,0.7c-1.5-0.3-2.6-1.2-3.3-2.7c-0.7-1.5-0.7-2.9,0.1-4.3
		c0.8-1.4,2-2.4,3.6-3.2l0.4-0.2c1.6-0.8,3.2-1,4.8-0.7c1.5,0.3,2.6,1.2,3.3,2.7C328.5,257.2,328.5,258.6,327.7,260z"/>
	<path d="M336.5,271.2c0-0.2-0.1-0.4-0.2-0.6c-0.4-1-1.1-1.7-1.9-2.2c-0.8-0.5-1.8-0.7-2.9-0.7l0.2-0.1l2.3-1.3l-0.6-1.4l-14.4,6.6
		l0.7,1.6l10-4.6c1.1-0.2,2.1-0.1,2.9,0.3c0.9,0.4,1.5,1.1,2,2.1l0.4,1.2l1.6-0.5C336.6,271.5,336.5,271.3,336.5,271.2z"/>
</g>
<g id="Шар_5_копія_2">
	<path d="M243.5,146.3l-3.5-3.5c5.7-5.7,10.1-12.5,12.9-20.1l4.7,1.8C254.4,132.7,249.7,140,243.5,146.3z"/>
	<path d="M199.8,164.4c-3.5,0-6.9-0.3-10.4-0.9c-11.2-1.9-21.7-6.9-30.2-14.4c-13.3-11.7-21-28.6-21-46.3
		c0-33.9,27.6-61.5,61.6-61.5c33.9,0,61.5,27.6,61.5,61.5c0,1.2,0,2.4-0.1,3.5l-5-0.3c0.1-1,0.1-2,0.1-3.2
		c0-31.2-25.4-56.5-56.5-56.5c-31.2,0-56.6,25.4-56.6,56.5c0,16.3,7,31.8,19.3,42.5c7.9,6.9,17.5,11.5,27.8,13.2
		c7.8,1.3,16,1,23.7-1l0.3-0.1h0.3l0,2.5l0.6,2.4C210.2,163.8,205,164.4,199.8,164.4z"/>
	<path d="M252.1,153.2l-3.6-3.5c6.2-6.4,11-13.9,14.2-22.2l4.7,1.8C263.9,138.3,258.8,146.3,252.1,153.2z"/>
	<path d="M199.8,175.4c-3.7,0-7.4-0.3-11-0.8h-0.4l-0.2-0.1c-14.9-2.4-28.4-9.3-39.2-19.9c-14-13.7-21.7-32.1-21.7-51.7
		c0-40,32.5-72.5,72.6-72.5c40,0,72.5,32.5,72.5,72.5c0,0.6,0,1.1,0,1.7l-5-0.1l0,0c0-0.5,0-1.1,0-1.6c0-37.2-30.3-67.5-67.5-67.5
		c-37.2,0-67.6,30.3-67.6,67.5c0,18.3,7.2,35.4,20.2,48.2c10.1,10,22.9,16.4,36.8,18.6l0.3,0c8.7,1.3,17.8,0.9,26.2-1.1l1.2,4.9
		C211.5,174.7,205.7,175.4,199.8,175.4z"/>
</g>
<path d="M219.3,167.7c0,1.3-0.2,2.6-0.5,3.9c-1.8,7.6-8.5,12.9-16.3,12.9c-6.8,0-12.8-4-15.4-10.1c0.4,0.1,0.7,0.1,1,0.2l0.2,0.1
	h0.4c1.5,0.2,3.1,0.4,4.7,0.6c2.2,2.7,5.5,4.3,9.1,4.3c4,0,7.5-2,9.7-5.1c0.8-1.2,1.4-2.5,1.8-4c0.1-0.5,0.2-1,0.2-1.5
	c0-0.4,0.1-0.8,0.1-1.2c0-1.6-0.3-3.2-1-4.7c-0.2-0.4-0.4-0.8-0.6-1.2l-0.2-0.3c-0.7-1.1-1.6-2.1-2.6-2.9c-2-1.7-4.6-2.6-7.4-2.6
	c-3.1,0-6,1.2-8.1,3.2c-1.4-0.1-2.8-0.3-4.1-0.5c-0.6-0.1-1.1-0.2-1.7-0.3c3.1-4.6,8.3-7.4,13.9-7.4c5.3,0,10.2,2.5,13.4,6.7h0.1
	l0.7,1.2C218.4,161.4,219.3,164.5,219.3,167.7z"/>
<g id="Шар_4_копія_копія">
	<path d="M202.5,184.4c-7.3,0-13.6-4.6-15.9-11.5c0-0.1,0-0.1-0.1-0.2l-0.1-0.4V172l2.5,0l2.3-1l0.1,0.4c1.6,4.8,6.1,8.1,11.2,8.1
		c5.5,0,10.2-3.7,11.4-9.1c0.2-0.9,0.3-1.8,0.3-2.7c0-2.1-0.6-4.1-1.6-5.9l-0.2-0.3c-2.2-3.4-5.9-5.5-9.9-5.5
		c-4.4,0-8.4,2.4-10.4,6.3l-4.4-2.3c2.9-5.6,8.6-9,14.9-9c5.3,0,10.2,2.5,13.4,6.6h0.1l0.7,1.2c1.7,2.7,2.6,5.8,2.6,8.9
		c0,1.3-0.2,2.6-0.4,3.8C217.1,179.1,210.4,184.4,202.5,184.4z"/>
	<path d="M199.8,482.7c-25.5,0-49.5-9.9-67.5-28c-18-18-28-42-28-67.5V230.6c0-33,16.6-63.2,44.5-80.8l3.7,5.9
		c-25.8,16.3-41.3,44.3-41.3,74.8v156.6c0,23.6,9.2,45.9,25.9,62.6c16.7,16.7,38.9,25.9,62.6,25.9c38.9,0,73.8-26,84.8-63.3
		c2.4-8.1,3.7-16.6,3.7-25.2V230.6c0-23.6-9.2-45.9-25.9-62.6c-4.7-4.7-9.8-8.8-15.3-12.3c-3.1-2-6.4-3.8-9.8-5.4
		c-10-4.7-20.7-7.4-31.7-8.1c-1.8-0.1-3.7-0.2-5.7-0.2c-13.1,0-25.7,2.8-37.5,8.3l-3-6.3c12.7-6,26.3-9,40.4-9
		c2.2,0,4.2,0.1,6.2,0.2c11.9,0.8,23.4,3.7,34.2,8.8c3.6,1.7,7.2,3.6,10.5,5.8c5.9,3.7,11.5,8.2,16.5,13.2c18,18,28,42,28,67.5
		v156.6c0,9.3-1.3,18.4-3.9,27.2c-5.7,19.3-17.8,36.7-33.9,48.9C240.8,476,220.9,482.7,199.8,482.7z"/>
</g>
<path d="M254.3,154.5c-2,0-4-0.4-5.9-1.1c-4.2-1.6-7.5-4.7-9.3-8.8c-1.8-4.1-2-8.6-0.4-12.8c1.6-4.2,4.7-7.5,8.8-9.3
	c4.1-1.8,8.6-2,12.8-0.4c4.2,1.6,7.5,4.7,9.3,8.8c3.8,8.4,0,18.4-8.4,22.2C259,154,256.6,154.5,254.3,154.5z M254.3,126
	c-1.6,0-3.3,0.3-4.8,1c-2.9,1.3-5,3.6-6.2,6.6c-1.1,2.9-1,6.1,0.3,9c1.3,2.9,3.6,5,6.6,6.2c2.9,1.1,6.1,1,9-0.3v0
	c5.9-2.7,8.5-9.6,5.9-15.5c-1.3-2.9-3.6-5-6.6-6.2C257.1,126.2,255.7,126,254.3,126z"/>
</svg>
