<?xml version="1.0" encoding="utf-8"?>
<!-- Generator: Adobe Illustrator 25.3.1, SVG Export Plug-In . SVG Version: 6.00 Build 0)  -->
<svg version="1.1" xmlns="http://www.w3.org/2000/svg" xmlns:xlink="http://www.w3.org/1999/xlink" x="0px" y="0px"
	 viewBox="0 0 512 512" style="enable-background:new 0 0 512 512;" xml:space="preserve">
<style type="text/css">
	.st0{fill:url(#SVGID_1_);}
	.st1{fill:url(#SVGID_2_);}
	.st2{fill:#F2F2F2;}
	.st3{fill:url(#SVGID_3_);}
	.st4{fill:url(#SVGID_4_);}
</style>
<g id="Шар_4">
	<linearGradient id="SVGID_1_" gradientUnits="userSpaceOnUse" x1="212.84" y1="267.6" x2="430.678" y2="267.6">
		<stop  offset="0" style="stop-color:#CCE0F4"/>
		<stop  offset="6.405089e-02" style="stop-color:#C3DCF2"/>
		<stop  offset="0.1706" style="stop-color:#A9D2EE"/>
		<stop  offset="0.3066" style="stop-color:#80C2E7"/>
		<stop  offset="0.4649" style="stop-color:#47ACDE"/>
		<stop  offset="0.5674" style="stop-color:#1E9CD7"/>
		<stop  offset="0.8652" style="stop-color:#0075BE"/>
		<stop  offset="0.9944" style="stop-color:#005B97"/>
	</linearGradient>
	<path class="st0" d="M424.9,370.2c-8.4,22.1-24.8,39.7-46.4,49.4c-11.5,5.2-23.8,7.9-36.4,7.9c-17.7,0-35.4-5.5-50.1-15.5
		c2.2-8,3.3-16.3,3.3-24.8V230.6c0-25.5-9.9-49.5-28-67.5c-3.2-3.2-6.6-6.2-10.2-8.8c1.3-0.2,2.7-0.7,4-1.2
		c8.4-3.8,12.2-13.7,8.4-22.2c-1.8-4.1-5.2-7.2-9.3-8.8c-4.2-1.6-8.7-1.4-12.8,0.4c-4.1,1.8-7.2,5.2-8.8,9.3
		c-1.4,3.7-1.4,7.7-0.2,11.4c-8.2-3.6-16.8-6.1-25.6-7.2c8-8.6,17.5-15.5,28.4-20.4c5.8-2.6,12-4.6,18.2-6c3.5-0.7,7.1-1.3,10.7-1.6
		c2.4-0.2,5-0.3,7.5-0.3c34.7,0,66.4,20.5,80.7,52.1l64.4,142.7C432.5,324.1,433.3,348.1,424.9,370.2z"/>
	<g id="Шар_4_копія_копія">
		<path d="M219.3,167.7c0,1.3-0.2,2.6-0.5,3.9c-1.8,7.6-8.5,12.9-16.3,12.9c-0.2,0-0.5,0-0.7,0c-0.3,0-0.7,0-1-0.1
			c-0.1,0-0.2,0-0.4,0c-0.2,0-0.4,0-0.6-0.1c-0.5-0.1-0.9-0.2-1.4-0.3c-0.2,0-0.4-0.1-0.6-0.2c-0.2,0-0.4-0.1-0.6-0.2
			c-0.2-0.1-0.4-0.1-0.7-0.2c-0.2-0.1-0.4-0.2-0.6-0.2c-1.4-0.6-2.7-1.3-3.9-2.3c-0.2-0.2-0.5-0.4-0.7-0.6c-0.4-0.3-0.7-0.6-1-1
			c-0.2-0.2-0.4-0.4-0.6-0.6c-0.1-0.1-0.2-0.2-0.3-0.3c-0.2-0.2-0.4-0.5-0.5-0.7c0-0.1-0.1-0.1-0.2-0.2c-0.2-0.3-0.4-0.6-0.6-0.9
			c0,0,0-0.1-0.1-0.1c-0.2-0.3-0.4-0.7-0.6-1c0,0,0,0,0,0c-0.2-0.4-0.3-0.7-0.5-1.1c-0.2-0.5-0.4-0.9-0.5-1.4c0-0.1-0.1-0.1-0.1-0.2
			l-0.1-0.4V172l2.5,0l2.3-1l0.1,0.4c0.5,1.4,1.2,2.7,2.1,3.8c0,0,0,0,0.1,0.1c0.1,0.1,0.2,0.2,0.3,0.3c0.1,0.1,0.2,0.2,0.3,0.3
			c0.1,0.1,0.2,0.2,0.3,0.3c0.1,0.2,0.3,0.3,0.5,0.4c0.1,0.1,0.2,0.2,0.3,0.3c0.1,0.1,0.2,0.2,0.3,0.2c0.1,0.1,0.2,0.2,0.4,0.3
			c0.2,0.2,0.4,0.3,0.6,0.4c0.2,0.1,0.5,0.3,0.8,0.4c0,0,0.1,0,0.1,0c0.3,0.1,0.5,0.2,0.8,0.4c0,0,0,0,0,0c0.2,0.1,0.5,0.2,0.7,0.3
			c0.2,0.1,0.4,0.1,0.7,0.2c0.1,0,0.3,0.1,0.4,0.1c0.3,0.1,0.7,0.1,1,0.2c0.2,0,0.3,0,0.5,0.1c0.1,0,0.2,0,0.3,0c0.3,0,0.6,0,0.8,0
			c0.3,0,0.6,0,0.8,0c0.2,0,0.3,0,0.5,0c0.3,0,0.6-0.1,0.9-0.1c0.2,0,0.3-0.1,0.5-0.1c0.4-0.1,0.8-0.2,1.2-0.3
			c0.2,0,0.3-0.1,0.5-0.2c0.3-0.1,0.6-0.2,0.8-0.4c0,0,0.1,0,0.1-0.1c0.1-0.1,0.3-0.1,0.4-0.2c0.6-0.3,1.1-0.7,1.6-1.1
			c0.2-0.2,0.4-0.4,0.6-0.6c0.1-0.1,0.1-0.1,0.2-0.2c0.2-0.2,0.3-0.3,0.5-0.5c0.4-0.4,0.7-0.8,1-1.3c0,0,0,0,0,0
			c0.1-0.1,0.2-0.3,0.3-0.4c0.1-0.1,0.2-0.3,0.3-0.5c0.1-0.1,0.2-0.3,0.2-0.4c0.2-0.3,0.3-0.6,0.4-0.9c0.1-0.2,0.2-0.5,0.3-0.7
			c0,0,0-0.1,0-0.1c0.1-0.3,0.2-0.6,0.3-1c0.1-0.2,0.1-0.5,0.2-0.7c0-0.2,0.1-0.5,0.1-0.8c0-0.2,0-0.4,0-0.6c0-0.2,0-0.4,0-0.6
			c0-0.3,0-0.5,0-0.8c0-0.2,0-0.5-0.1-0.7c-0.1-0.8-0.3-1.5-0.5-2.2c0-0.1-0.1-0.2-0.1-0.3c-0.1-0.2-0.2-0.5-0.3-0.7
			c-0.2-0.4-0.4-0.8-0.6-1.2l-0.2-0.3c-0.2-0.3-0.4-0.6-0.6-0.8c0,0,0,0,0,0c-0.2-0.2-0.4-0.5-0.6-0.7c-0.2-0.2-0.4-0.5-0.7-0.7
			c-0.2-0.2-0.5-0.4-0.7-0.6c-0.5-0.4-1.1-0.8-1.6-1.1c-0.3-0.2-0.6-0.3-0.9-0.4c-0.3-0.1-0.6-0.3-0.9-0.4c-0.7-0.2-1.4-0.4-2.2-0.5
			c-0.2,0-0.4-0.1-0.6-0.1c-0.4,0-0.8-0.1-1.2-0.1c-0.3,0-0.5,0-0.8,0c-0.6,0-1.2,0.1-1.8,0.3c-0.1,0-0.3,0.1-0.4,0.1
			c-0.7,0.2-1.4,0.4-2,0.7c-0.2,0.1-0.4,0.2-0.7,0.3c-0.3,0.1-0.5,0.3-0.8,0.5c-0.1,0.1-0.2,0.1-0.3,0.2c-0.4,0.3-0.9,0.7-1.3,1.1
			c-0.9,0.9-1.7,1.9-2.3,3.1l-4.4-2.3c0.3-0.6,0.6-1.1,1-1.6c0.2-0.3,0.4-0.6,0.6-0.8c0.2-0.3,0.4-0.5,0.6-0.8
			c0.2-0.2,0.3-0.4,0.5-0.6c0.2-0.2,0.4-0.4,0.6-0.6c0.1-0.1,0.2-0.2,0.3-0.3c0.2-0.2,0.5-0.4,0.7-0.6c0.5-0.4,1.1-0.9,1.7-1.2
			c0.6-0.4,1.2-0.7,1.9-1c0.3-0.1,0.5-0.2,0.8-0.3c0,0,0.1,0,0.1,0c0.3-0.1,0.6-0.2,1-0.3c0.4-0.1,0.7-0.2,1.1-0.3
			c0.3-0.1,0.6-0.1,0.9-0.2c0.1,0,0.2,0,0.2,0c0.2,0,0.5-0.1,0.7-0.1c0,0,0.1,0,0.1,0c0.3,0,0.5-0.1,0.8-0.1c0.1,0,0.2,0,0.3,0
			c0.3,0,0.6,0,0.9,0c5.3,0,10.2,2.5,13.4,6.7h0.1l0.7,1.2C218.4,161.4,219.3,164.5,219.3,167.7z"/>
		<linearGradient id="SVGID_2_" gradientUnits="userSpaceOnUse" x1="111.35" y1="308.9" x2="288.35" y2="308.9">
			<stop  offset="0" style="stop-color:#CCE0F4"/>
			<stop  offset="6.405089e-02" style="stop-color:#C3DCF2"/>
			<stop  offset="0.1706" style="stop-color:#A9D2EE"/>
			<stop  offset="0.3066" style="stop-color:#80C2E7"/>
			<stop  offset="0.4649" style="stop-color:#47ACDE"/>
			<stop  offset="0.5674" style="stop-color:#1E9CD7"/>
			<stop  offset="0.8652" style="stop-color:#0075BE"/>
			<stop  offset="0.9944" style="stop-color:#005B97"/>
		</linearGradient>
		<path class="st1" d="M262.4,168c-4.7-4.7-9.8-8.8-15.3-12.3c-3.1-2-6.4-3.8-9.8-5.4c-10-4.7-20.7-7.4-31.7-8.1
			c-1.8-0.1-3.7-0.2-5.7-0.2c-11.6,0-22.7,2.2-33.3,6.5c6.6,4.8,14.1,8.1,22.1,9.7c0.2-0.3,0.4-0.6,0.6-0.8c0.2-0.3,0.4-0.5,0.6-0.8
			c0.2-0.2,0.3-0.4,0.5-0.6c0.2-0.2,0.4-0.4,0.6-0.6c0.1-0.1,0.2-0.2,0.3-0.3c0.2-0.2,0.5-0.4,0.7-0.6c0.5-0.4,1.1-0.9,1.7-1.2
			c0.6-0.4,1.2-0.7,1.9-1c0.3-0.1,0.5-0.2,0.8-0.3c0,0,0.1,0,0.1,0c0.3-0.1,0.6-0.2,1-0.3c0.4-0.1,0.7-0.2,1.1-0.3
			c0.3-0.1,0.6-0.1,0.9-0.2c0.1,0,0.2,0,0.2,0c0.2,0,0.5-0.1,0.7-0.1c0,0,0.1,0,0.1,0c0.3,0,0.5-0.1,0.8-0.1c0.1,0,0.2,0,0.3,0
			c0.3,0,0.6,0,0.9,0c5.3,0,10.2,2.5,13.4,6.7h0.1l0.7,1.2c1.7,2.7,2.6,5.8,2.6,8.9c0,1.3-0.2,2.6-0.5,3.9
			c-1.8,7.6-8.5,12.9-16.3,12.9c-0.2,0-0.5,0-0.7,0c-0.3,0-0.7,0-1-0.1c-0.1,0-0.2,0-0.4,0c-0.2,0-0.4,0-0.6-0.1
			c-0.5-0.1-0.9-0.2-1.4-0.3c-0.2,0-0.4-0.1-0.6-0.2c-0.2,0-0.4-0.1-0.6-0.2c-0.2-0.1-0.4-0.1-0.7-0.2c-0.2-0.1-0.4-0.2-0.6-0.2
			c-1.4-0.6-2.7-1.3-3.9-2.3c-0.2-0.2-0.5-0.4-0.7-0.6c-0.4-0.3-0.7-0.6-1-1c-0.2-0.2-0.4-0.4-0.6-0.6c-0.1-0.1-0.2-0.2-0.3-0.3
			c-0.2-0.2-0.4-0.5-0.5-0.7c0-0.1-0.1-0.1-0.2-0.2c-0.2-0.3-0.4-0.6-0.6-0.9c0,0,0-0.1-0.1-0.1c-0.2-0.3-0.4-0.7-0.6-1c0,0,0,0,0,0
			c-0.2-0.4-0.3-0.7-0.5-1.1c-13.5-2.4-25.8-8.4-36-17.6c-25,16.4-39.9,43.9-39.9,73.9v156.6c0,23.6,9.2,45.9,25.9,62.6
			c16.7,16.7,38.9,25.9,62.6,25.9c38.9,0,73.8-26,84.8-63.3c2.4-8.1,3.7-16.6,3.7-25.2V230.6C288.3,207,279.1,184.8,262.4,168z
			 M272.8,328.2c-2.3,9.4-10.5,10.5-16.4,11.3c-3.2,0.4-7.1,0.5-10.5,0.6c-3.4,0.1-6.9,0.1-8.4,0.6c-1,0.3-2.8,1-3.5,2.3
			c-0.4,0.9-0.3,2.2,0.3,3.8c0.8,1.9,4.3,3.6,8,5.4c4.9,2.3,11,5.2,15.6,10.6c4.4,5.2,8.2,13.9,6.8,20.4c-0.7,3.1-2.5,5.5-5.2,6.8
			c-2.8,1.3-5.4,2-7.9,2c-4.6,0-8.8-2.3-13.2-7c-1.2-1.3-2.7-3.3-4.7-5.9c-5-6.6-14.2-18.8-19.6-19.4c-0.7-0.1-1.1,0-1.6,0.4
			c-3.4,2.7-2.9,6.8-1.8,12.9c0.7,3.9,1.4,7.5,0,10.4c-2.9,5.8-5.8,8.7-13.2,7c-5.7-1.2-9.7-4.5-12-9.7c-1-2.2-0.4-5.8,0.6-12
			c0.8-4.9,2-12.3,0.7-14.4c-0.8-1.3-2.1-2-3.7-2.1c-2.1-0.2-4.5,0.8-5.8,2.2c-0.8,0.9-2.2,4.2-3.6,7.3c-3.3,7.6-7.4,17.1-13.2,20.6
			c-8.7,5.2-19.2,1.1-23.2-3.7c-4-4.9-3.1-13.2-0.3-19.3c3-6.6,8.4-10.9,12.7-14.3c3.3-2.6,6.2-4.9,6.5-7c0.5-4.1-1.1-5.3-5.1-6.4
			c-3.8-1.1-6.7,0.8-10,2.9c-3.5,2.2-7.5,4.8-12.6,3.5c-4.3-1.1-8.5-4.6-11-9.1c-2.2-3.9-2.8-7.9-1.7-11.3c1.9-6.2,9.2-12.4,15.4-13
			c6-0.6,9.9,2.6,13.4,5.3c3.3,2.7,5.5,4.3,8.6,3.9c2.3-0.3,5-1.4,7.2-3c2.2-1.6,4-3.8,4.7-6.2c1.2-4.2-2.4-7.5-8.4-12.5
			c-6.3-5.3-13.5-11.3-12.6-20.8c0.6-6.3,2.4-10.4,5.7-13c3.7-2.9,8.9-3.6,16.6-2.4c8.7,1.4,10.5,9.8,12.1,17.2
			c1.6,7.3,3.1,14.1,9.5,16.9c4.6,2,13,4.4,18.2-0.8c3.7-3.7,4-8,4.4-12.9c0.4-5.3,0.9-11.2,6-16.5c6.4-6.6,16.4-8.2,23.8-3.7
			c4.9,3,8.5,8.6,9.6,15c1.3,7.7-0.8,15.4-6,21.8c-2.2,2.8-4.5,6-5.9,11.1c-1.5,5.4,1.7,7.6,4.7,8.5c2.3,0.7,5.1,0.2,8.3-0.3
			c3-0.5,6.3-1,10.1-0.9c4,0.1,7.4,1.9,9.7,4.9C273,319.3,273.8,323.7,272.8,328.2z"/>
		<path d="M295.3,230.6v156.6c0,8.4-1.1,16.8-3.3,24.8c0,0,0,0.1,0,0.1c-0.2,0.8-0.4,1.5-0.7,2.3c-0.2,0.7-0.4,1.4-0.7,2.1
			c-0.3,0.8-0.5,1.6-0.8,2.4c-6.2,17.5-17.6,33.1-32.5,44.4c-16.7,12.7-36.6,19.3-57.6,19.3c-25.5,0-49.5-9.9-67.5-28
			c-18-18-28-42-28-67.5V230.6c0-31.9,15.6-61.2,41.8-79c0.9-0.6,1.8-1.2,2.7-1.8l3.7,5.9c-0.5,0.3-0.9,0.6-1.4,0.9
			c-25,16.4-39.9,43.9-39.9,73.9v156.6c0,23.6,9.2,45.9,25.9,62.6c16.7,16.7,38.9,25.9,62.6,25.9c38.9,0,73.8-26,84.8-63.3
			c2.4-8.1,3.7-16.6,3.7-25.2V230.6c0-23.6-9.2-45.9-25.9-62.6c-4.7-4.7-9.8-8.8-15.3-12.3c-3.1-2-6.4-3.8-9.8-5.4
			c-10-4.7-20.7-7.4-31.7-8.1c-1.8-0.1-3.7-0.2-5.7-0.2c-11.6,0-22.7,2.2-33.3,6.5c-1.4,0.6-2.8,1.2-4.2,1.8l-3-6.3
			c0.4-0.2,0.8-0.4,1.2-0.5c12.4-5.6,25.6-8.4,39.3-8.4c1.5,0,3,0,4.4,0.1c0.2,0,0.4,0,0.6,0c0.4,0,0.8,0,1.2,0.1
			c0.6,0,1.2,0.1,1.7,0.1c0.4,0,0.7,0.1,1.1,0.1c0.5,0,1.1,0.1,1.6,0.2c0,0,0,0,0,0c0.6,0.1,1.2,0.1,1.9,0.2c0.2,0,0.3,0,0.5,0.1
			c8.8,1.2,17.4,3.6,25.6,7.2c0.6,0.3,1.2,0.5,1.8,0.8c0.7,0.3,1.3,0.6,2,0.9c0,0,0,0,0,0c0.5,0.3,1.1,0.5,1.6,0.8
			c1.8,1,3.6,2,5.4,3c0.5,0.3,1,0.6,1.6,1c0.9,0.6,1.8,1.2,2.7,1.8c1.2,0.8,2.5,1.7,3.7,2.6c3.6,2.7,7,5.6,10.2,8.8
			C285.4,181.1,295.3,205.1,295.3,230.6z"/>
	</g>
	<path class="st2" d="M267.9,327c-1.4,5.7-5.5,6.6-12.2,7.6c-2.9,0.4-6.4,0.5-9.9,0.5c-4,0.1-7.5,0.1-9.7,0.8
		c-3.2,0.9-5.5,2.6-6.6,4.9c-1.1,2.3-1,4.9,0.2,7.9c1.5,3.7,5.7,5.7,10.5,8c4.7,2.2,10,4.8,13.9,9.3c3.5,4.1,6.7,11.5,5.7,16.1
		c-0.3,1.6-1.1,2.7-2.5,3.3c-5,2.4-9.3,2.6-15.2-3.9c-1-1.1-2.6-3.2-4.4-5.6c-8.2-10.8-16.1-20.5-23-21.4c-0.3,0-0.7-0.1-1-0.1
		c-1.6,0-3.1,0.5-4.3,1.5c-6,4.7-4.6,11.9-3.6,17.7c0.5,2.9,1.1,5.9,0.4,7.3c-2.3,4.6-3.4,5.3-7.6,4.4c-4.1-0.9-6.8-3.1-8.5-6.8
		c-0.4-1.1,0.4-6,0.9-9.2c1.1-7,2.3-14.2,0-17.8c-1.7-2.6-4.4-4.2-7.6-4.5c-3.7-0.3-7.6,1.3-9.9,3.9c-1.3,1.5-2.6,4.5-4.4,8.6
		c-2.9,6.6-6.8,15.6-11.2,18.3c-6.5,3.9-14.3,0.5-16.8-2.6c-2.2-2.7-2.1-8.6,0.3-14c2.5-5.5,7.1-9.2,11.2-12.4
		c4.2-3.3,7.8-6.1,8.3-10.3c1.2-9.1-6-11.2-8.7-11.9c-5.9-1.7-10.4,1.2-14.1,3.6c-3.5,2.2-5.8,3.6-8.6,2.8c-3-0.8-6.1-3.4-7.9-6.7
		c-1.5-2.6-1.9-5.3-1.3-7.5c1.3-4.2,7-9.1,11.1-9.5c4-0.4,6.7,1.8,9.8,4.3c3.3,2.6,7,5.6,12.4,4.9c6.4-0.8,14.2-5.7,16.1-12.8
		c2.1-7.6-4.1-12.7-10-17.7c-5.7-4.7-11.5-9.6-10.9-16.5c0.4-4.8,1.6-7.8,3.8-9.5c2.5-1.9,6.6-2.4,12.7-1.4c5,0.8,6.3,5.6,8,13.3
		c1.7,7.8,3.6,16.6,12.4,20.4c9.9,4.2,18.3,3.5,23.8-1.9c5-5,5.5-10.9,5.9-16.1c0.4-4.9,0.8-9.5,4.6-13.4c5.4-5.5,13.1-5.7,17.6-2.9
		c3.7,2.2,6.4,6.6,7.2,11.6c1.1,6.2-0.7,12.5-4.9,17.8c-2.6,3.2-5.2,6.9-6.9,12.9c-2.3,8.3,2.7,13,8.1,14.6c3.4,1,6.9,0.5,10.6-0.2
		c2.8-0.5,5.8-1,9.1-0.8c2.5,0.1,4.6,1.1,5.9,2.9C268.2,321.2,268.6,324,267.9,327z"/>
	<linearGradient id="SVGID_3_" gradientUnits="userSpaceOnUse" x1="244.88" y1="137.405" x2="262.14" y2="137.405">
		<stop  offset="0" style="stop-color:#CCE0F4"/>
		<stop  offset="6.405089e-02" style="stop-color:#C3DCF2"/>
		<stop  offset="0.1706" style="stop-color:#A9D2EE"/>
		<stop  offset="0.3066" style="stop-color:#80C2E7"/>
		<stop  offset="0.4649" style="stop-color:#47ACDE"/>
		<stop  offset="0.5674" style="stop-color:#1E9CD7"/>
		<stop  offset="0.8652" style="stop-color:#0075BE"/>
		<stop  offset="0.9944" style="stop-color:#005B97"/>
	</linearGradient>
	<path class="st3" d="M262.1,129c-3,7.2-7.2,13.7-12.5,19.5c-1.9-0.8-3.5-2.1-4.7-3.7c5.1-5.4,9.1-11.7,11.9-18.5
		c0.5,0.1,1.1,0.3,1.6,0.5C259.8,127.3,261.1,128.1,262.1,129z"/>
	<linearGradient id="SVGID_4_" gradientUnits="userSpaceOnUse" x1="132.3" y1="102.8585" x2="267.38" y2="102.8585">
		<stop  offset="0" style="stop-color:#CCE0F4"/>
		<stop  offset="6.405089e-02" style="stop-color:#C3DCF2"/>
		<stop  offset="0.1706" style="stop-color:#A9D2EE"/>
		<stop  offset="0.3066" style="stop-color:#80C2E7"/>
		<stop  offset="0.4649" style="stop-color:#47ACDE"/>
		<stop  offset="0.5674" style="stop-color:#1E9CD7"/>
		<stop  offset="0.8652" style="stop-color:#0075BE"/>
		<stop  offset="0.9944" style="stop-color:#005B97"/>
	</linearGradient>
	<path class="st4" d="M267.4,101.3c-2,0.2-4,0.5-6,0.9c-0.4-33.6-27.8-60.8-61.5-60.8c-33.9,0-61.6,27.6-61.6,61.5
		c0,17.7,7.6,34.6,21,46.3c8.6,7.5,19,12.5,30.2,14.4c3.4,0.6,6.9,0.9,10.4,0.9c4.5,0,9.1-0.5,13.5-1.5c0.1,0.2,0.2,0.5,0.3,0.7
		c0,0.1,0.1,0.2,0.1,0.3c0.2,0.7,0.4,1.5,0.5,2.2c0,0.2,0.1,0.4,0.1,0.7c0,0.3,0,0.5,0,0.8c0,0.2,0,0.4,0,0.6c0,0.2,0,0.4,0,0.6
		c-8,1.7-16.4,2-24.6,0.8l-0.3-0.1c-14-2.2-26.7-8.6-36.8-18.6c-13-12.8-20.2-29.9-20.2-48.2c0-37.2,30.3-67.5,67.5-67.5
		C236.6,35.3,266.5,64.8,267.4,101.3z"/>
</g>
<g id="Шар_13">
	<path d="M431.5,372.7c-9,23.9-26.8,42.8-50,53.3c-12.5,5.6-25.6,8.5-39.2,8.5c-18.4,0-36.8-5.5-52.3-15.5c0.3-0.8,0.6-1.6,0.8-2.4
		c0.2-0.7,0.4-1.4,0.7-2.1c0.2-0.8,0.4-1.5,0.7-2.3c0,0,0-0.1,0-0.1c14.7,10,32.4,15.5,50.1,15.5c12.6,0,24.8-2.6,36.4-7.9
		c21.5-9.7,38-27.3,46.4-49.4c8.4-22.1,7.6-46.2-2.1-67.7l-64.4-142.7c-14.3-31.7-46-52.1-80.7-52.1c-2.5,0-5,0.1-7.5,0.3
		c-3.6,0.3-7.2,0.8-10.7,1.6c-6.3,1.3-12.4,3.3-18.2,6c-10.9,4.9-20.5,11.8-28.4,20.4c-0.2,0-0.3,0-0.5-0.1
		c-0.6-0.1-1.2-0.2-1.9-0.2c0,0,0,0,0,0c-0.5-0.1-1.1-0.1-1.6-0.2c-0.3,0-0.7-0.1-1.1-0.1c-0.6-0.1-1.2-0.1-1.7-0.1
		c-0.4,0-0.8-0.1-1.2-0.1c-0.2,0-0.4,0-0.6,0c9.2-11.1,21-20,34.2-26c5.8-2.6,11.8-4.7,18-6.1c0.6-0.1,1.1-0.3,1.7-0.4
		c1.1-0.2,2.2-0.4,3.3-0.6c2-0.3,4-0.6,6-0.9c0.7-0.1,1.5-0.1,2.2-0.2c0.9-0.1,1.8-0.2,2.8-0.2c1.7-0.1,3.5-0.2,5.3-0.2
		c37.5,0,71.7,22.1,87.1,56.2l64.4,142.7C439.7,322.9,440.5,348.9,431.5,372.7z"/>
	<path d="M270.6,316.1c-2.3-3-5.8-4.8-9.7-4.9c-3.8-0.1-7.2,0.4-10.1,0.9c-3.2,0.5-6,1-8.3,0.3c-3-0.9-6.2-3.1-4.7-8.5
		c1.4-5.1,3.7-8.3,5.9-11.1c5.2-6.4,7.3-14.1,6-21.8c-1.1-6.5-4.7-12.1-9.6-15c-7.4-4.5-17.3-2.9-23.8,3.7c-5.1,5.2-5.6,11.2-6,16.5
		c-0.4,5-0.8,9.2-4.4,12.9c-5.2,5.2-13.7,2.8-18.2,0.8c-6.4-2.7-7.9-9.6-9.5-16.9c-1.6-7.4-3.4-15.8-12.1-17.2
		c-7.6-1.2-12.9-0.5-16.6,2.4c-3.3,2.6-5.1,6.7-5.7,13c-0.9,9.5,6.3,15.5,12.6,20.8c6,5,9.6,8.4,8.4,12.5c-0.7,2.4-2.5,4.6-4.7,6.2
		c-2.2,1.6-4.9,2.7-7.2,3c-3.1,0.4-5.3-1.2-8.6-3.9c-3.5-2.8-7.4-5.9-13.4-5.3c-6.1,0.6-13.5,6.8-15.4,13c-1.1,3.4-0.5,7.5,1.7,11.3
		c2.5,4.5,6.8,8,11,9.1c5.1,1.3,9.1-1.2,12.6-3.5c3.4-2.2,6.2-4,10-2.9c4,1.1,5.6,2.3,5.1,6.4c-0.3,2.1-3.2,4.4-6.5,7
		c-4.3,3.4-9.7,7.6-12.7,14.3c-2.7,6.1-3.7,14.4,0.3,19.3c4,4.8,14.5,8.9,23.2,3.7c5.8-3.5,9.9-12.9,13.2-20.6
		c1.4-3.1,2.8-6.3,3.6-7.3c1.3-1.5,3.7-2.4,5.8-2.2c1.7,0.1,2.9,0.8,3.7,2.1c1.3,2,0.1,9.5-0.7,14.4c-1,6.2-1.5,9.8-0.6,12
		c2.3,5.2,6.3,8.4,12,9.7c7.4,1.6,10.3-1.2,13.2-7c1.4-2.9,0.8-6.5,0-10.4c-1.1-6.1-1.6-10.3,1.8-12.9c0.5-0.4,1-0.5,1.6-0.4
		c5.4,0.7,14.7,12.9,19.6,19.4c2,2.6,3.5,4.6,4.7,5.9c4.3,4.7,8.5,7,13.2,7c2.5,0,5.1-0.7,7.9-2c2.7-1.3,4.5-3.7,5.2-6.8
		c1.4-6.5-2.4-15.2-6.8-20.4c-4.6-5.4-10.7-8.3-15.6-10.6c-3.7-1.8-7.2-3.5-8-5.4c-0.7-1.6-0.8-2.9-0.3-3.8c0.6-1.3,2.5-2,3.5-2.3
		c1.6-0.4,5-0.5,8.4-0.6c3.4-0.1,7.2-0.1,10.5-0.6c6-0.8,14.1-2,16.4-11.3C273.8,323.7,273,319.3,270.6,316.1z M267.9,327
		c-1.4,5.7-5.5,6.6-12.2,7.6c-2.9,0.4-6.4,0.5-9.9,0.5c-4,0.1-7.5,0.1-9.7,0.8c-3.2,0.9-5.5,2.6-6.6,4.9c-1.1,2.3-1,4.9,0.2,7.9
		c1.5,3.7,5.7,5.7,10.5,8c4.7,2.2,10,4.8,13.9,9.3c3.5,4.1,6.7,11.5,5.7,16.1c-0.3,1.6-1.1,2.7-2.5,3.3c-5,2.4-9.3,2.6-15.2-3.9
		c-1-1.1-2.6-3.2-4.4-5.6c-8.2-10.8-16.1-20.5-23-21.4c-0.3,0-0.7-0.1-1-0.1c-1.6,0-3.1,0.5-4.3,1.5c-6,4.7-4.6,11.9-3.6,17.7
		c0.5,2.9,1.1,5.9,0.4,7.3c-2.3,4.6-3.4,5.3-7.6,4.4c-4.1-0.9-6.8-3.1-8.5-6.8c-0.4-1.1,0.4-6,0.9-9.2c1.1-7,2.3-14.2,0-17.8
		c-1.7-2.6-4.4-4.2-7.6-4.5c-3.7-0.3-7.6,1.3-9.9,3.9c-1.3,1.5-2.6,4.5-4.4,8.6c-2.9,6.6-6.8,15.6-11.2,18.3
		c-6.5,3.9-14.3,0.5-16.8-2.6c-2.2-2.7-2.1-8.6,0.3-14c2.5-5.5,7.1-9.2,11.2-12.4c4.2-3.3,7.8-6.1,8.3-10.3c1.2-9.1-6-11.2-8.7-11.9
		c-5.9-1.7-10.4,1.2-14.1,3.6c-3.5,2.2-5.8,3.6-8.6,2.8c-3-0.8-6.1-3.4-7.9-6.7c-1.5-2.6-1.9-5.3-1.3-7.5c1.3-4.2,7-9.1,11.1-9.5
		c4-0.4,6.7,1.8,9.8,4.3c3.3,2.6,7,5.6,12.4,4.9c6.4-0.8,14.2-5.7,16.1-12.8c2.1-7.6-4.1-12.7-10-17.7c-5.7-4.7-11.5-9.6-10.9-16.5
		c0.4-4.8,1.6-7.8,3.8-9.5c2.5-1.9,6.6-2.4,12.7-1.4c5,0.8,6.3,5.6,8,13.3c1.7,7.8,3.6,16.6,12.4,20.4c9.9,4.2,18.3,3.5,23.8-1.9
		c5-5,5.5-10.9,5.9-16.1c0.4-4.9,0.8-9.5,4.6-13.4c5.4-5.5,13.1-5.7,17.6-2.9c3.7,2.2,6.4,6.6,7.2,11.6c1.1,6.2-0.7,12.5-4.9,17.8
		c-2.6,3.2-5.2,6.9-6.9,12.9c-2.3,8.3,2.7,13,8.1,14.6c3.4,1,6.9,0.5,10.6-0.2c2.8-0.5,5.8-1,9.1-0.8c2.5,0.1,4.6,1.1,5.9,2.9
		C268.2,321.2,268.6,324,267.9,327z"/>
	<g id="Шар_5_копія_2">
		<path d="M257.5,124.4c-0.2,0.6-0.5,1.2-0.7,1.9c-2.8,6.9-6.8,13.1-11.9,18.5c-0.3,0.3-0.7,0.7-1,1c-0.1,0.1-0.3,0.3-0.4,0.4
			l-1.2-1.2h0l-2.3-2.3c1-1,1.9-1.9,2.7-3c3.5-4,6.4-8.5,8.6-13.4c0.6-1.2,1.1-2.5,1.6-3.7L257.5,124.4z"/>
		<path d="M261.4,102.9c0,1.2,0,2.4-0.1,3.5l-5-0.3c0.1-0.9,0.1-1.8,0.1-2.9v-0.3c0-31.2-25.4-56.5-56.6-56.5
			c-31.2,0-56.6,25.4-56.6,56.5c0,15.4,6.3,30,17.3,40.7c0.6,0.6,1.3,1.2,2,1.8c1.3,1.1,2.6,2.2,4,3.2c6.6,4.8,14.1,8.1,22.1,9.7
			c0.6,0.1,1.1,0.2,1.7,0.3c0.7,0.1,1.3,0.2,2,0.3c0,0,0,0,0.1,0c0.7,0.1,1.4,0.2,2,0.2c5.2,0.5,10.4,0.3,15.5-0.6
			c1.4-0.2,2.7-0.5,4.1-0.9l0.3-0.1h0.3v2.5l0.6,2.4c-0.6,0.2-1.3,0.3-1.9,0.5c-4.4,1-8.9,1.5-13.5,1.5c-3.5,0-6.9-0.3-10.4-0.9
			c-11.2-1.9-21.7-6.9-30.2-14.4c-13.3-11.7-21-28.6-21-46.3c0-33.9,27.6-61.5,61.6-61.5c33.7,0,61.2,27.2,61.5,60.8
			C261.4,102.4,261.4,102.6,261.4,102.9z"/>
		<path d="M267.4,129.4c-0.6,1.6-1.3,3.1-2,4.6v0c-2.6,5.5-6,10.7-9.9,15.4c-0.6,0.8-1.3,1.5-1.9,2.2c-0.5,0.5-0.9,1-1.4,1.5
			l-3.6-3.5c0.3-0.3,0.5-0.5,0.8-0.8c0.1-0.1,0.2-0.2,0.3-0.4c5.3-5.8,9.5-12.3,12.5-19.5c0.2-0.5,0.4-1,0.6-1.5L267.4,129.4z"/>
		<path d="M272.4,102.9c0,0.6,0,1.1,0,1.7l-5-0.1v0c0-0.5,0-1.1,0-1.6c0-0.5,0-1.1,0-1.6c-0.8-36.5-30.8-66-67.5-66
			c-37.2,0-67.5,30.3-67.5,67.5c0,18.3,7.2,35.4,20.2,48.2c10.1,10,22.9,16.4,36.8,18.6l0.3,0.1c8.2,1.2,16.7,1,24.6-0.8
			c0.5-0.1,1.1-0.2,1.6-0.4l1.2,4.9c-1.6,0.4-3.2,0.7-4.8,1c-4,0.7-8.2,1.1-12.4,1.1c-2.1,0-4.3-0.1-6.4-0.3
			c-1.6-0.1-3.1-0.3-4.7-0.6h-0.4l-0.2-0.1c-0.3-0.1-0.7-0.1-1-0.2c-13.5-2.4-25.8-8.4-36-17.6c-0.8-0.7-1.5-1.4-2.2-2.1
			c-1-1-1.9-1.9-2.8-2.9c-12.2-13.4-18.9-30.5-18.9-48.8c0-40,32.5-72.5,72.5-72.5c39.3,0,71.5,31.5,72.5,70.6
			C272.4,101.5,272.4,102.2,272.4,102.9z"/>
	</g>
	<path d="M219.3,167.7c0,1.3-0.2,2.6-0.5,3.9c-1.8,7.6-8.5,12.9-16.3,12.9c-0.2,0-0.5,0-0.7,0c-0.3,0-0.7,0-1-0.1
		c-0.1,0-0.2,0-0.4,0c-0.2,0-0.4,0-0.6-0.1c-0.5-0.1-0.9-0.2-1.4-0.3c-0.2,0-0.4-0.1-0.6-0.2c-0.2,0-0.4-0.1-0.6-0.2
		c-0.2-0.1-0.4-0.1-0.7-0.2c-0.2-0.1-0.4-0.2-0.6-0.2c-1.4-0.6-2.7-1.3-3.9-2.3c-0.2-0.2-0.5-0.4-0.7-0.6c-0.4-0.3-0.7-0.6-1-1
		c-0.2-0.2-0.4-0.4-0.6-0.6c-0.1-0.1-0.2-0.2-0.3-0.3c-0.2-0.2-0.4-0.5-0.5-0.7c0-0.1-0.1-0.1-0.2-0.2c-0.2-0.3-0.4-0.6-0.6-0.9
		c0,0,0-0.1-0.1-0.1c-0.2-0.3-0.4-0.7-0.6-1c0,0,0,0,0,0c-0.2-0.4-0.3-0.7-0.5-1.1c0.4,0.1,0.7,0.1,1,0.2l0.2,0.1h0.4
		c1.5,0.2,3.1,0.4,4.7,0.6c0,0,0,0,0.1,0.1c0.1,0.1,0.2,0.2,0.3,0.3c0.1,0.1,0.2,0.2,0.3,0.3c0.1,0.1,0.2,0.2,0.3,0.3
		c0.1,0.2,0.3,0.3,0.5,0.4c0.1,0.1,0.2,0.2,0.3,0.3c0.1,0.1,0.2,0.2,0.3,0.2c0.1,0.1,0.2,0.2,0.4,0.3c0.2,0.2,0.4,0.3,0.6,0.4
		c0.2,0.2,0.5,0.3,0.8,0.4c0,0,0.1,0,0.1,0c0.3,0.1,0.5,0.2,0.8,0.4c0,0,0,0,0,0c0.2,0.1,0.5,0.2,0.7,0.3c0.2,0.1,0.4,0.1,0.7,0.2
		c0.1,0,0.3,0.1,0.4,0.1c0.3,0.1,0.7,0.1,1,0.2c0.2,0,0.3,0,0.5,0.1c0.1,0,0.2,0,0.3,0c0.3,0,0.6,0,0.8,0c0.3,0,0.6,0,0.8,0
		c0.2,0,0.3,0,0.5,0c0.3,0,0.6-0.1,0.9-0.1c0.2,0,0.3-0.1,0.5-0.1c0.4-0.1,0.8-0.2,1.2-0.3c0.2,0,0.3-0.1,0.5-0.2
		c0.3-0.1,0.6-0.2,0.8-0.4c0,0,0.1,0,0.1-0.1c0.1-0.1,0.3-0.1,0.4-0.2c0.6-0.3,1.1-0.7,1.6-1.1c0.2-0.2,0.4-0.4,0.6-0.6
		c0.1-0.1,0.1-0.1,0.2-0.2c0.2-0.2,0.3-0.3,0.5-0.5c0.4-0.4,0.7-0.8,1-1.3c0,0,0,0,0,0c0.1-0.1,0.2-0.3,0.3-0.4
		c0.1-0.1,0.2-0.3,0.3-0.5c0.1-0.1,0.2-0.3,0.2-0.4c0.2-0.3,0.3-0.6,0.4-0.9c0.1-0.2,0.2-0.5,0.3-0.7c0,0,0-0.1,0-0.1
		c0.1-0.3,0.2-0.6,0.3-1c0.1-0.2,0.1-0.5,0.2-0.7c0-0.2,0.1-0.5,0.1-0.8c0-0.2,0-0.4,0-0.6c0-0.2,0-0.4,0-0.6c0-0.3,0-0.5,0-0.8
		c0-0.2,0-0.5-0.1-0.7c-0.1-0.8-0.3-1.5-0.5-2.2c0-0.1-0.1-0.2-0.1-0.3c-0.1-0.2-0.2-0.5-0.3-0.7c-0.2-0.4-0.4-0.8-0.6-1.2l-0.2-0.3
		c-0.2-0.3-0.4-0.6-0.6-0.8c0,0,0,0,0,0c-0.2-0.2-0.4-0.5-0.6-0.7c-0.2-0.2-0.4-0.5-0.7-0.7c-0.2-0.2-0.5-0.4-0.7-0.6
		c-0.5-0.4-1.1-0.8-1.6-1.1c-0.3-0.2-0.6-0.3-0.9-0.4c-0.3-0.1-0.6-0.2-0.9-0.4c-0.7-0.2-1.4-0.4-2.2-0.5c-0.2,0-0.4-0.1-0.6-0.1
		c-0.4,0-0.8-0.1-1.2-0.1c-0.3,0-0.5,0-0.8,0c-0.6,0-1.2,0.1-1.8,0.3c-0.1,0-0.3,0.1-0.4,0.1c-0.7,0.2-1.4,0.4-2,0.7
		c-0.2,0.1-0.4,0.2-0.7,0.3c-0.3,0.1-0.5,0.3-0.8,0.5c-0.1,0.1-0.2,0.1-0.3,0.2c-0.4,0.3-0.9,0.7-1.3,1.1c-0.7-0.1-1.4-0.1-2-0.2
		c0,0-0.1,0-0.1,0c-0.7-0.1-1.3-0.2-2-0.3c-0.6-0.1-1.1-0.2-1.7-0.3c0.2-0.3,0.4-0.6,0.6-0.8c0.2-0.3,0.4-0.5,0.6-0.8
		c0.2-0.2,0.3-0.4,0.5-0.6c0.2-0.2,0.4-0.4,0.6-0.6c0.1-0.1,0.2-0.2,0.3-0.3c0.2-0.2,0.5-0.4,0.7-0.6c0.5-0.4,1.1-0.9,1.7-1.2
		c0.6-0.4,1.2-0.7,1.9-1c0.3-0.1,0.5-0.2,0.8-0.3c0,0,0.1,0,0.1,0c0.3-0.1,0.6-0.2,1-0.3c0.4-0.1,0.7-0.2,1.1-0.3
		c0.3-0.1,0.6-0.1,0.9-0.2c0.1,0,0.2,0,0.2,0c0.2,0,0.5-0.1,0.7-0.1c0,0,0.1,0,0.1,0c0.3,0,0.5-0.1,0.8-0.1c0.1,0,0.2,0,0.3,0
		c0.3,0,0.6,0,0.9,0c5.3,0,10.2,2.5,13.4,6.7h0.1l0.7,1.2C218.4,161.4,219.3,164.5,219.3,167.7z"/>
	<path d="M269.5,130.9c-1.8-4.1-5.2-7.2-9.3-8.8c-4.2-1.6-8.7-1.4-12.8,0.4c-4.1,1.8-7.2,5.2-8.8,9.3c-1.4,3.7-1.4,7.7-0.2,11.4
		c0.2,0.5,0.3,0.9,0.6,1.4c1.8,4.1,5.2,7.2,9.3,8.8c1.9,0.7,3.9,1.1,5.9,1.1c1,0,1.9-0.1,2.9-0.3c1.3-0.2,2.7-0.7,4-1.2
		C269.6,149.2,273.3,139.3,269.5,130.9z M259.1,148.5c-1.2,0.5-2.4,0.9-3.6,1c-1.8,0.2-3.6,0-5.4-0.7c-0.2-0.1-0.3-0.1-0.5-0.2
		c-1.9-0.8-3.5-2.1-4.7-3.7c-0.5-0.7-1-1.4-1.3-2.2c-0.4-0.9-0.7-1.8-0.9-2.8c-0.4-2.1-0.2-4.2,0.6-6.2c1.1-2.9,3.3-5.3,6.2-6.6
		c0.6-0.3,1.2-0.5,1.9-0.7c1-0.3,2-0.4,3-0.4c0.8,0,1.7,0.1,2.5,0.3c0.5,0.1,1.1,0.3,1.6,0.5c1.4,0.5,2.7,1.3,3.7,2.3
		c1.2,1.1,2.1,2.4,2.8,3.9c0.2,0.4,0.3,0.7,0.4,1.1v0c0.4,1.2,0.6,2.5,0.6,3.7C266,142.2,263.4,146.5,259.1,148.5z"/>
</g>
</svg>
