<?xml version="1.0" encoding="utf-8"?>
<!-- Generator: Adobe Illustrator 25.3.1, SVG Export Plug-In . SVG Version: 6.00 Build 0)  -->
<svg version="1.1" xmlns="http://www.w3.org/2000/svg" xmlns:xlink="http://www.w3.org/1999/xlink" x="0px" y="0px"
	 viewBox="0 0 512 512" style="enable-background:new 0 0 512 512;" xml:space="preserve">
<style type="text/css">
	.st0{fill:url(#SVGID_1_);}
	.st1{fill:url(#SVGID_2_);}
	.st2{fill:url(#SVGID_3_);}
	.st3{fill:url(#SVGID_4_);}
</style>
<g id="Шар_4">
	<linearGradient id="SVGID_1_" gradientUnits="userSpaceOnUse" x1="212.84" y1="267.6" x2="430.678" y2="267.6">
		<stop  offset="0" style="stop-color:#CCE0F4"/>
		<stop  offset="6.405089e-02" style="stop-color:#C3DCF2"/>
		<stop  offset="0.1706" style="stop-color:#A9D2EE"/>
		<stop  offset="0.3066" style="stop-color:#80C2E7"/>
		<stop  offset="0.4649" style="stop-color:#47ACDE"/>
		<stop  offset="0.5674" style="stop-color:#1E9CD7"/>
		<stop  offset="0.8652" style="stop-color:#0075BE"/>
		<stop  offset="0.9944" style="stop-color:#005B97"/>
	</linearGradient>
	<path class="st0" d="M424.9,370.2c-8.4,22.1-24.8,39.7-46.4,49.4c-11.5,5.2-23.8,7.9-36.4,7.9c-17.7,0-35.4-5.5-50.1-15.5
		c2.2-8,3.3-16.3,3.3-24.8V230.6c0-25.5-9.9-49.5-28-67.5c-3.2-3.2-6.6-6.2-10.2-8.8c1.3-0.2,2.7-0.7,4-1.2
		c8.4-3.8,12.2-13.7,8.4-22.2c-1.8-4.1-5.2-7.2-9.3-8.8c-4.2-1.6-8.7-1.4-12.8,0.4c-4.1,1.8-7.2,5.2-8.8,9.3
		c-1.4,3.7-1.4,7.7-0.2,11.4c-8.2-3.6-16.8-6.1-25.6-7.2c8-8.6,17.5-15.5,28.4-20.4c5.8-2.6,12-4.6,18.2-6c3.5-0.7,7.1-1.3,10.7-1.6
		c2.4-0.2,5-0.3,7.5-0.3c34.7,0,66.4,20.5,80.7,52.1l64.4,142.7C432.5,324.1,433.3,348.1,424.9,370.2z"/>
	<g id="Шар_4_копія_копія">
		<path d="M219.3,167.7c0,1.3-0.2,2.6-0.5,3.9c-1.8,7.6-8.5,12.9-16.3,12.9c-0.2,0-0.5,0-0.7,0c-0.3,0-0.7,0-1-0.1
			c-0.1,0-0.2,0-0.4,0c-0.2,0-0.4,0-0.6-0.1c-0.5-0.1-0.9-0.2-1.4-0.3c-0.2,0-0.4-0.1-0.6-0.2c-0.2,0-0.4-0.1-0.6-0.2
			c-0.2-0.1-0.4-0.1-0.7-0.2c-0.2-0.1-0.4-0.2-0.6-0.2c-1.4-0.6-2.7-1.3-3.9-2.3c-0.2-0.2-0.5-0.4-0.7-0.6c-0.4-0.3-0.7-0.6-1-1
			c-0.2-0.2-0.4-0.4-0.6-0.6c-0.1-0.1-0.2-0.2-0.3-0.3c-0.2-0.2-0.4-0.5-0.5-0.7c0-0.1-0.1-0.1-0.2-0.2c-0.2-0.3-0.4-0.6-0.6-0.9
			c0,0,0-0.1-0.1-0.1c-0.2-0.3-0.4-0.7-0.6-1c0,0,0,0,0,0c-0.2-0.4-0.3-0.7-0.5-1.1c-0.2-0.5-0.4-0.9-0.5-1.4c0-0.1-0.1-0.1-0.1-0.2
			l-0.1-0.4V172l2.5,0l2.3-1l0.1,0.4c0.5,1.4,1.2,2.7,2.1,3.8c0,0,0,0,0.1,0.1c0.1,0.1,0.2,0.2,0.3,0.3c0.1,0.1,0.2,0.2,0.3,0.3
			c0.1,0.1,0.2,0.2,0.3,0.3c0.1,0.2,0.3,0.3,0.5,0.4c0.1,0.1,0.2,0.2,0.3,0.3c0.1,0.1,0.2,0.2,0.3,0.2c0.1,0.1,0.2,0.2,0.4,0.3
			c0.2,0.2,0.4,0.3,0.6,0.4c0.2,0.1,0.5,0.3,0.8,0.4c0,0,0.1,0,0.1,0c0.3,0.1,0.5,0.2,0.8,0.4c0,0,0,0,0,0c0.2,0.1,0.5,0.2,0.7,0.3
			c0.2,0.1,0.4,0.1,0.7,0.2c0.1,0,0.3,0.1,0.4,0.1c0.3,0.1,0.7,0.1,1,0.2c0.2,0,0.3,0,0.5,0.1c0.1,0,0.2,0,0.3,0c0.3,0,0.6,0,0.8,0
			c0.3,0,0.6,0,0.8,0c0.2,0,0.3,0,0.5,0c0.3,0,0.6-0.1,0.9-0.1c0.2,0,0.3-0.1,0.5-0.1c0.4-0.1,0.8-0.2,1.2-0.3
			c0.2,0,0.3-0.1,0.5-0.2c0.3-0.1,0.6-0.2,0.8-0.4c0,0,0.1,0,0.1-0.1c0.1-0.1,0.3-0.1,0.4-0.2c0.6-0.3,1.1-0.7,1.6-1.1
			c0.2-0.2,0.4-0.4,0.6-0.6c0.1-0.1,0.1-0.1,0.2-0.2c0.2-0.2,0.3-0.3,0.5-0.5c0.4-0.4,0.7-0.8,1-1.3c0,0,0,0,0,0
			c0.1-0.1,0.2-0.3,0.3-0.4c0.1-0.1,0.2-0.3,0.3-0.5c0.1-0.1,0.2-0.3,0.2-0.4c0.2-0.3,0.3-0.6,0.4-0.9c0.1-0.2,0.2-0.5,0.3-0.7
			c0,0,0-0.1,0-0.1c0.1-0.3,0.2-0.6,0.3-1c0.1-0.2,0.1-0.5,0.2-0.7c0-0.2,0.1-0.5,0.1-0.8c0-0.2,0-0.4,0-0.6c0-0.2,0-0.4,0-0.6
			c0-0.3,0-0.5,0-0.8c0-0.2,0-0.5-0.1-0.7c-0.1-0.8-0.3-1.5-0.5-2.2c0-0.1-0.1-0.2-0.1-0.3c-0.1-0.2-0.2-0.5-0.3-0.7
			c-0.2-0.4-0.4-0.8-0.6-1.2l-0.2-0.3c-0.2-0.3-0.4-0.6-0.6-0.8c0,0,0,0,0,0c-0.2-0.2-0.4-0.5-0.6-0.7c-0.2-0.2-0.4-0.5-0.7-0.7
			c-0.2-0.2-0.5-0.4-0.7-0.6c-0.5-0.4-1.1-0.8-1.6-1.1c-0.3-0.2-0.6-0.3-0.9-0.4c-0.3-0.1-0.6-0.3-0.9-0.4c-0.7-0.2-1.4-0.4-2.2-0.5
			c-0.2,0-0.4-0.1-0.6-0.1c-0.4,0-0.8-0.1-1.2-0.1c-0.3,0-0.5,0-0.8,0c-0.6,0-1.2,0.1-1.8,0.3c-0.1,0-0.3,0.1-0.4,0.1
			c-0.7,0.2-1.4,0.4-2,0.7c-0.2,0.1-0.4,0.2-0.7,0.3c-0.3,0.1-0.5,0.3-0.8,0.5c-0.1,0.1-0.2,0.1-0.3,0.2c-0.4,0.3-0.9,0.7-1.3,1.1
			c-0.9,0.9-1.7,1.9-2.3,3.1l-4.4-2.3c0.3-0.6,0.6-1.1,1-1.6c0.2-0.3,0.4-0.6,0.6-0.8c0.2-0.3,0.4-0.5,0.6-0.8
			c0.2-0.2,0.3-0.4,0.5-0.6c0.2-0.2,0.4-0.4,0.6-0.6c0.1-0.1,0.2-0.2,0.3-0.3c0.2-0.2,0.5-0.4,0.7-0.6c0.5-0.4,1.1-0.9,1.7-1.2
			c0.6-0.4,1.2-0.7,1.9-1c0.3-0.1,0.5-0.2,0.8-0.3c0,0,0.1,0,0.1,0c0.3-0.1,0.6-0.2,1-0.3c0.4-0.1,0.7-0.2,1.1-0.3
			c0.3-0.1,0.6-0.1,0.9-0.2c0.1,0,0.2,0,0.2,0c0.2,0,0.5-0.1,0.7-0.1c0,0,0.1,0,0.1,0c0.3,0,0.5-0.1,0.8-0.1c0.1,0,0.2,0,0.3,0
			c0.3,0,0.6,0,0.9,0c5.3,0,10.2,2.5,13.4,6.7h0.1l0.7,1.2C218.4,161.4,219.3,164.5,219.3,167.7z"/>
		<linearGradient id="SVGID_2_" gradientUnits="userSpaceOnUse" x1="92.9395" y1="275.1693" x2="306.7233" y2="342.6373">
			<stop  offset="0" style="stop-color:#CCE0F4"/>
			<stop  offset="6.405089e-02" style="stop-color:#C3DCF2"/>
			<stop  offset="0.1706" style="stop-color:#A9D2EE"/>
			<stop  offset="0.3066" style="stop-color:#80C2E7"/>
			<stop  offset="0.4649" style="stop-color:#47ACDE"/>
			<stop  offset="0.5674" style="stop-color:#1E9CD7"/>
			<stop  offset="0.8652" style="stop-color:#0075BE"/>
			<stop  offset="0.9944" style="stop-color:#005B97"/>
		</linearGradient>
		<path class="st1" d="M288.3,230.6v156.6c0,8.6-1.2,17.1-3.7,25.2c-11,37.3-45.9,63.3-84.8,63.3c-23.6,0-45.9-9.2-62.6-25.9
			c-16.7-16.7-25.9-38.9-25.9-62.6V230.6c0-30,14.9-57.5,39.9-73.9c10.1,9.2,22.5,15.2,36,17.6c0.2,0.4,0.3,0.7,0.5,1.1c0,0,0,0,0,0
			c0.2,0.3,0.4,0.7,0.6,1c0,0,0,0.1,0.1,0.1c0.2,0.3,0.4,0.6,0.6,0.9c0,0.1,0.1,0.1,0.2,0.2c0.2,0.2,0.4,0.5,0.5,0.7
			c0.1,0.1,0.2,0.2,0.3,0.3c0.2,0.2,0.4,0.4,0.6,0.6c0.3,0.4,0.7,0.7,1,1c0.2,0.2,0.5,0.4,0.7,0.6c1.2,0.9,2.5,1.7,3.9,2.3
			c0.2,0.1,0.4,0.2,0.6,0.2c0.2,0.1,0.4,0.2,0.7,0.2c0.2,0.1,0.4,0.1,0.6,0.2c0.2,0.1,0.4,0.1,0.6,0.2c0.4,0.1,0.9,0.2,1.4,0.3
			c0.2,0,0.4,0.1,0.6,0.1c0.1,0,0.2,0,0.4,0c0.3,0,0.6,0.1,1,0.1c0.2,0,0.5,0,0.7,0c7.8,0,14.5-5.3,16.3-12.9
			c0.3-1.2,0.5-2.6,0.5-3.9c0-3.2-0.9-6.3-2.6-8.9l-0.7-1.2h-0.1c-3.2-4.2-8.1-6.7-13.4-6.7c-0.3,0-0.6,0-0.9,0c-0.1,0-0.2,0-0.3,0
			c-0.3,0-0.5,0-0.8,0.1c0,0-0.1,0-0.1,0c-0.2,0-0.5,0.1-0.7,0.1c-0.1,0-0.2,0-0.2,0c-0.3,0.1-0.6,0.1-0.9,0.2
			c-0.4,0.1-0.7,0.2-1.1,0.3c-0.3,0.1-0.6,0.2-1,0.3c0,0-0.1,0-0.1,0c-0.3,0.1-0.5,0.2-0.8,0.3c-0.6,0.3-1.3,0.6-1.9,1
			c-0.6,0.4-1.2,0.8-1.7,1.2c-0.3,0.2-0.5,0.4-0.7,0.6c-0.1,0.1-0.2,0.2-0.3,0.3c-0.2,0.2-0.4,0.4-0.6,0.6c-0.2,0.2-0.4,0.4-0.5,0.6
			c-0.2,0.2-0.4,0.5-0.6,0.8c-0.2,0.3-0.4,0.5-0.6,0.8c-8-1.6-15.5-4.9-22.1-9.7c10.5-4.3,21.7-6.5,33.3-6.5c2,0,3.9,0.1,5.7,0.2
			c11,0.7,21.7,3.4,31.7,8.1c3.4,1.6,6.6,3.4,9.8,5.4c5.5,3.5,10.7,7.6,15.3,12.3C279.1,184.8,288.3,207,288.3,230.6z"/>
		<path d="M295.3,230.6v156.6c0,8.4-1.1,16.8-3.3,24.8c0,0,0,0.1,0,0.1c-0.2,0.8-0.4,1.5-0.7,2.3c-0.2,0.7-0.4,1.4-0.7,2.1
			c-0.3,0.8-0.5,1.6-0.8,2.4c-6.2,17.5-17.6,33.1-32.5,44.4c-16.7,12.7-36.6,19.3-57.6,19.3c-25.5,0-49.5-9.9-67.5-28
			c-18-18-28-42-28-67.5V230.6c0-31.9,15.6-61.2,41.8-79c0.9-0.6,1.8-1.2,2.7-1.8l3.7,5.9c-0.5,0.3-0.9,0.6-1.4,0.9
			c-25,16.4-39.9,43.9-39.9,73.9v156.6c0,23.6,9.2,45.9,25.9,62.6c16.7,16.7,38.9,25.9,62.6,25.9c38.9,0,73.8-26,84.8-63.3
			c2.4-8.1,3.7-16.6,3.7-25.2V230.6c0-23.6-9.2-45.9-25.9-62.6c-4.7-4.7-9.8-8.8-15.3-12.3c-3.1-2-6.4-3.8-9.8-5.4
			c-10-4.7-20.7-7.4-31.7-8.1c-1.8-0.1-3.7-0.2-5.7-0.2c-11.6,0-22.7,2.2-33.3,6.5c-1.4,0.6-2.8,1.2-4.2,1.8l-3-6.3
			c0.4-0.2,0.8-0.4,1.2-0.5c12.4-5.6,25.6-8.4,39.3-8.4c1.5,0,3,0,4.4,0.1c0.2,0,0.4,0,0.6,0c0.4,0,0.8,0,1.2,0.1
			c0.6,0,1.2,0.1,1.7,0.1c0.4,0,0.7,0.1,1.1,0.1c0.5,0,1.1,0.1,1.6,0.2c0,0,0,0,0,0c0.6,0.1,1.2,0.1,1.9,0.2c0.2,0,0.3,0,0.5,0.1
			c8.8,1.2,17.4,3.6,25.6,7.2c0.6,0.3,1.2,0.5,1.8,0.8c0.7,0.3,1.3,0.6,2,0.9h0l0,0c0.5,0.3,1.1,0.5,1.6,0.8c1.8,1,3.6,2,5.4,3
			c0.5,0.3,1,0.6,1.6,1c0.9,0.6,1.8,1.2,2.7,1.8c1.2,0.8,2.5,1.7,3.7,2.6c3.6,2.7,7,5.6,10.2,8.8
			C285.4,181.1,295.3,205.1,295.3,230.6z"/>
	</g>
	<linearGradient id="SVGID_3_" gradientUnits="userSpaceOnUse" x1="244.88" y1="137.405" x2="262.14" y2="137.405">
		<stop  offset="0" style="stop-color:#CCE0F4"/>
		<stop  offset="6.405089e-02" style="stop-color:#C3DCF2"/>
		<stop  offset="0.1706" style="stop-color:#A9D2EE"/>
		<stop  offset="0.3066" style="stop-color:#80C2E7"/>
		<stop  offset="0.4649" style="stop-color:#47ACDE"/>
		<stop  offset="0.5674" style="stop-color:#1E9CD7"/>
		<stop  offset="0.8652" style="stop-color:#0075BE"/>
		<stop  offset="0.9944" style="stop-color:#005B97"/>
	</linearGradient>
	<path class="st2" d="M262.1,129c-3,7.2-7.2,13.7-12.5,19.5c-1.9-0.8-3.5-2.1-4.7-3.7c5.1-5.4,9.1-11.7,11.9-18.5
		c0.5,0.1,1.1,0.3,1.6,0.5C259.8,127.3,261.1,128.1,262.1,129z"/>
	<linearGradient id="SVGID_4_" gradientUnits="userSpaceOnUse" x1="132.3" y1="102.8585" x2="267.38" y2="102.8585">
		<stop  offset="0" style="stop-color:#CCE0F4"/>
		<stop  offset="6.405089e-02" style="stop-color:#C3DCF2"/>
		<stop  offset="0.1706" style="stop-color:#A9D2EE"/>
		<stop  offset="0.3066" style="stop-color:#80C2E7"/>
		<stop  offset="0.4649" style="stop-color:#47ACDE"/>
		<stop  offset="0.5674" style="stop-color:#1E9CD7"/>
		<stop  offset="0.8652" style="stop-color:#0075BE"/>
		<stop  offset="0.9944" style="stop-color:#005B97"/>
	</linearGradient>
	<path class="st3" d="M267.4,101.3c-2,0.2-4,0.5-6,0.9c-0.4-33.6-27.8-60.8-61.5-60.8c-33.9,0-61.6,27.6-61.6,61.5
		c0,17.7,7.6,34.6,21,46.3c8.6,7.5,19,12.5,30.2,14.4c3.4,0.6,6.9,0.9,10.4,0.9c4.5,0,9.1-0.5,13.5-1.5c0.1,0.2,0.2,0.5,0.3,0.7
		c0,0.1,0.1,0.2,0.1,0.3c0.2,0.7,0.4,1.5,0.5,2.2c0,0.2,0.1,0.4,0.1,0.7c0,0.3,0,0.5,0,0.8c0,0.2,0,0.4,0,0.6c0,0.2,0,0.4,0,0.6
		c-8,1.7-16.4,2-24.6,0.8l-0.3-0.1c-14-2.2-26.7-8.6-36.8-18.6c-13-12.8-20.2-29.9-20.2-48.2c0-37.2,30.3-67.5,67.5-67.5
		C236.6,35.3,266.5,64.8,267.4,101.3z"/>
</g>
<g id="Шар_5">
	<path d="M255.5,395.8c-4.1,0-7.5-3.4-7.5-7.5v-170c0-4.1,3.4-7.5,7.5-7.5c4.1,0,7.5,3.4,7.5,7.5v170
		C263,392.5,259.7,395.8,255.5,395.8z"/>
	<path d="M219,316.4c-4.1,0-7.5-3.4-7.5-7.5v-90.6c0-4.1,3.4-7.5,7.5-7.5s7.5,3.4,7.5,7.5v90.6C226.5,313,223.1,316.4,219,316.4z"/>
</g>
<g id="Шар_13">
	<path d="M431.5,372.7c-9,23.9-26.8,42.8-50,53.3c-12.5,5.6-25.6,8.5-39.2,8.5c-18.4,0-36.8-5.5-52.3-15.5c0.3-0.8,0.6-1.6,0.8-2.4
		c0.2-0.7,0.4-1.4,0.7-2.1c0.2-0.8,0.4-1.5,0.7-2.3c0,0,0-0.1,0-0.1c14.7,10,32.4,15.5,50.1,15.5c12.6,0,24.8-2.6,36.4-7.9
		c21.5-9.7,38-27.3,46.4-49.4c8.4-22.1,7.6-46.2-2.1-67.7l-64.4-142.7c-14.3-31.7-46-52.1-80.7-52.1c-2.5,0-5,0.1-7.5,0.3
		c-3.6,0.3-7.2,0.8-10.7,1.6c-6.3,1.3-12.4,3.3-18.2,6c-10.9,4.9-20.5,11.8-28.4,20.4c-0.2,0-0.3,0-0.5-0.1
		c-0.6-0.1-1.2-0.2-1.9-0.2c0,0,0,0,0,0c-0.5-0.1-1.1-0.1-1.6-0.2c-0.3,0-0.7-0.1-1.1-0.1c-0.6-0.1-1.2-0.1-1.7-0.1
		c-0.4,0-0.8-0.1-1.2-0.1c-0.2,0-0.4,0-0.6,0c9.2-11.1,21-20,34.2-26c5.8-2.6,11.8-4.7,18-6.1c0.6-0.1,1.1-0.3,1.7-0.4
		c1.1-0.2,2.2-0.4,3.3-0.6c2-0.3,4-0.6,6-0.9c0.7-0.1,1.5-0.1,2.2-0.2c0.9-0.1,1.8-0.2,2.8-0.2c1.7-0.1,3.5-0.2,5.3-0.2
		c37.5,0,71.7,22.1,87.1,56.2l64.4,142.7C439.7,322.9,440.5,348.9,431.5,372.7z"/>
	<g id="Шар_5_копія_2">
		<path d="M257.5,124.4c-0.2,0.6-0.5,1.2-0.7,1.9c-2.8,6.9-6.8,13.1-11.9,18.5c-0.3,0.3-0.7,0.7-1,1c-0.1,0.1-0.3,0.3-0.4,0.4
			l-1.2-1.2h0l-2.3-2.3c1-1,1.9-1.9,2.7-3c3.5-4,6.4-8.5,8.6-13.4c0.6-1.2,1.1-2.5,1.6-3.7L257.5,124.4z"/>
		<path d="M261.4,102.9c0,1.2,0,2.4-0.1,3.5l-5-0.3c0.1-0.9,0.1-1.8,0.1-2.9v-0.3c0-31.2-25.4-56.5-56.6-56.5
			c-31.2,0-56.6,25.4-56.6,56.5c0,15.4,6.3,30,17.3,40.7c0.6,0.6,1.3,1.2,2,1.8c1.3,1.1,2.6,2.2,4,3.2c6.6,4.8,14.1,8.1,22.1,9.7
			c0.6,0.1,1.1,0.2,1.7,0.3c0.7,0.1,1.3,0.2,2,0.3c0,0,0,0,0.1,0c0.7,0.1,1.4,0.2,2,0.2c5.2,0.5,10.4,0.3,15.5-0.6
			c1.4-0.2,2.7-0.5,4.1-0.9l0.3-0.1h0.3v2.5l0.6,2.4c-0.6,0.2-1.3,0.3-1.9,0.5c-4.4,1-8.9,1.5-13.5,1.5c-3.5,0-6.9-0.3-10.4-0.9
			c-11.2-1.9-21.7-6.9-30.2-14.4c-13.3-11.7-21-28.6-21-46.3c0-33.9,27.6-61.5,61.6-61.5c33.7,0,61.2,27.2,61.5,60.8
			C261.4,102.4,261.4,102.6,261.4,102.9z"/>
		<path d="M267.4,129.4c-0.6,1.6-1.3,3.1-2,4.6v0c-2.6,5.5-6,10.7-9.9,15.4c-0.6,0.8-1.3,1.5-1.9,2.2c-0.5,0.5-0.9,1-1.4,1.5
			l-3.6-3.5c0.3-0.3,0.5-0.5,0.8-0.8c0.1-0.1,0.2-0.2,0.3-0.4c5.3-5.8,9.5-12.3,12.5-19.5c0.2-0.5,0.4-1,0.6-1.5L267.4,129.4z"/>
		<path d="M272.4,102.9c0,0.6,0,1.1,0,1.7l-5-0.1v0c0-0.5,0-1.1,0-1.6c0-0.5,0-1.1,0-1.6c-0.8-36.5-30.8-66-67.5-66
			c-37.2,0-67.5,30.3-67.5,67.5c0,18.3,7.2,35.4,20.2,48.2c10.1,10,22.9,16.4,36.8,18.6l0.3,0.1c8.2,1.2,16.7,1,24.6-0.8
			c0.5-0.1,1.1-0.2,1.6-0.4l1.2,4.9c-1.6,0.4-3.2,0.7-4.8,1c-4,0.7-8.2,1.1-12.4,1.1c-2.1,0-4.3-0.1-6.4-0.3
			c-1.6-0.1-3.1-0.3-4.7-0.6h-0.4l-0.2-0.1c-0.3-0.1-0.7-0.1-1-0.2c-13.5-2.4-25.8-8.4-36-17.6c-0.8-0.7-1.5-1.4-2.2-2.1
			c-1-1-1.9-1.9-2.8-2.9c-12.2-13.4-18.9-30.5-18.9-48.8c0-40,32.5-72.5,72.5-72.5c39.3,0,71.5,31.5,72.5,70.6
			C272.4,101.5,272.4,102.2,272.4,102.9z"/>
	</g>
	<path d="M219.3,167.7c0,1.3-0.2,2.6-0.5,3.9c-1.8,7.6-8.5,12.9-16.3,12.9c-0.2,0-0.5,0-0.7,0c-0.3,0-0.7,0-1-0.1
		c-0.1,0-0.2,0-0.4,0c-0.2,0-0.4,0-0.6-0.1c-0.5-0.1-0.9-0.2-1.4-0.3c-0.2,0-0.4-0.1-0.6-0.2c-0.2,0-0.4-0.1-0.6-0.2
		c-0.2-0.1-0.4-0.1-0.7-0.2c-0.2-0.1-0.4-0.2-0.6-0.2c-1.4-0.6-2.7-1.3-3.9-2.3c-0.2-0.2-0.5-0.4-0.7-0.6c-0.4-0.3-0.7-0.6-1-1
		c-0.2-0.2-0.4-0.4-0.6-0.6c-0.1-0.1-0.2-0.2-0.3-0.3c-0.2-0.2-0.4-0.5-0.5-0.7c0-0.1-0.1-0.1-0.2-0.2c-0.2-0.3-0.4-0.6-0.6-0.9
		c0,0,0-0.1-0.1-0.1c-0.2-0.3-0.4-0.7-0.6-1c0,0,0,0,0,0c-0.2-0.4-0.3-0.7-0.5-1.1c0.4,0.1,0.7,0.1,1,0.2l0.2,0.1h0.4
		c1.5,0.2,3.1,0.4,4.7,0.6c0,0,0,0,0.1,0.1c0.1,0.1,0.2,0.2,0.3,0.3c0.1,0.1,0.2,0.2,0.3,0.3c0.1,0.1,0.2,0.2,0.3,0.3
		c0.1,0.2,0.3,0.3,0.5,0.4c0.1,0.1,0.2,0.2,0.3,0.3c0.1,0.1,0.2,0.2,0.3,0.2c0.1,0.1,0.2,0.2,0.4,0.3c0.2,0.2,0.4,0.3,0.6,0.4
		c0.2,0.2,0.5,0.3,0.8,0.4c0,0,0.1,0,0.1,0c0.3,0.1,0.5,0.2,0.8,0.4c0,0,0,0,0,0c0.2,0.1,0.5,0.2,0.7,0.3c0.2,0.1,0.4,0.1,0.7,0.2
		c0.1,0,0.3,0.1,0.4,0.1c0.3,0.1,0.7,0.1,1,0.2c0.2,0,0.3,0,0.5,0.1c0.1,0,0.2,0,0.3,0c0.3,0,0.6,0,0.8,0c0.3,0,0.6,0,0.8,0
		c0.2,0,0.3,0,0.5,0c0.3,0,0.6-0.1,0.9-0.1c0.2,0,0.3-0.1,0.5-0.1c0.4-0.1,0.8-0.2,1.2-0.3c0.2,0,0.3-0.1,0.5-0.2
		c0.3-0.1,0.6-0.2,0.8-0.4c0,0,0.1,0,0.1-0.1c0.1-0.1,0.3-0.1,0.4-0.2c0.6-0.3,1.1-0.7,1.6-1.1c0.2-0.2,0.4-0.4,0.6-0.6
		c0.1-0.1,0.1-0.1,0.2-0.2c0.2-0.2,0.3-0.3,0.5-0.5c0.4-0.4,0.7-0.8,1-1.3c0,0,0,0,0,0c0.1-0.1,0.2-0.3,0.3-0.4
		c0.1-0.1,0.2-0.3,0.3-0.5c0.1-0.1,0.2-0.3,0.2-0.4c0.2-0.3,0.3-0.6,0.4-0.9c0.1-0.2,0.2-0.5,0.3-0.7c0,0,0-0.1,0-0.1
		c0.1-0.3,0.2-0.6,0.3-1c0.1-0.2,0.1-0.5,0.2-0.7c0-0.2,0.1-0.5,0.1-0.8c0-0.2,0-0.4,0-0.6c0-0.2,0-0.4,0-0.6c0-0.3,0-0.5,0-0.8
		c0-0.2,0-0.5-0.1-0.7c-0.1-0.8-0.3-1.5-0.5-2.2c0-0.1-0.1-0.2-0.1-0.3c-0.1-0.2-0.2-0.5-0.3-0.7c-0.2-0.4-0.4-0.8-0.6-1.2l-0.2-0.3
		c-0.2-0.3-0.4-0.6-0.6-0.8c0,0,0,0,0,0c-0.2-0.2-0.4-0.5-0.6-0.7c-0.2-0.2-0.4-0.5-0.7-0.7c-0.2-0.2-0.5-0.4-0.7-0.6
		c-0.5-0.4-1.1-0.8-1.6-1.1c-0.3-0.2-0.6-0.3-0.9-0.4c-0.3-0.1-0.6-0.2-0.9-0.4c-0.7-0.2-1.4-0.4-2.2-0.5c-0.2,0-0.4-0.1-0.6-0.1
		c-0.4,0-0.8-0.1-1.2-0.1c-0.3,0-0.5,0-0.8,0c-0.6,0-1.2,0.1-1.8,0.3c-0.1,0-0.3,0.1-0.4,0.1c-0.7,0.2-1.4,0.4-2,0.7
		c-0.2,0.1-0.4,0.2-0.7,0.3c-0.3,0.1-0.5,0.3-0.8,0.5c-0.1,0.1-0.2,0.1-0.3,0.2c-0.4,0.3-0.9,0.7-1.3,1.1c-0.7-0.1-1.4-0.1-2-0.2
		c0,0-0.1,0-0.1,0c-0.7-0.1-1.3-0.2-2-0.3c-0.6-0.1-1.1-0.2-1.7-0.3c0.2-0.3,0.4-0.6,0.6-0.8c0.2-0.3,0.4-0.5,0.6-0.8
		c0.2-0.2,0.3-0.4,0.5-0.6c0.2-0.2,0.4-0.4,0.6-0.6c0.1-0.1,0.2-0.2,0.3-0.3c0.2-0.2,0.5-0.4,0.7-0.6c0.5-0.4,1.1-0.9,1.7-1.2
		c0.6-0.4,1.2-0.7,1.9-1c0.3-0.1,0.5-0.2,0.8-0.3c0,0,0.1,0,0.1,0c0.3-0.1,0.6-0.2,1-0.3c0.4-0.1,0.7-0.2,1.1-0.3
		c0.3-0.1,0.6-0.1,0.9-0.2c0.1,0,0.2,0,0.2,0c0.2,0,0.5-0.1,0.7-0.1c0,0,0.1,0,0.1,0c0.3,0,0.5-0.1,0.8-0.1c0.1,0,0.2,0,0.3,0
		c0.3,0,0.6,0,0.9,0c5.3,0,10.2,2.5,13.4,6.7h0.1l0.7,1.2C218.4,161.4,219.3,164.5,219.3,167.7z"/>
	<path d="M269.5,130.9c-1.8-4.1-5.2-7.2-9.3-8.8c-4.2-1.6-8.7-1.4-12.8,0.4c-4.1,1.8-7.2,5.2-8.8,9.3c-1.4,3.7-1.4,7.7-0.2,11.4
		c0.2,0.5,0.3,0.9,0.6,1.4c1.8,4.1,5.2,7.2,9.3,8.8c1.9,0.7,3.9,1.1,5.9,1.1c1,0,1.9-0.1,2.9-0.3c1.3-0.2,2.7-0.7,4-1.2
		C269.6,149.2,273.3,139.3,269.5,130.9z M259.1,148.5c-1.2,0.5-2.4,0.9-3.6,1c-1.8,0.2-3.6,0-5.4-0.7c-0.2-0.1-0.3-0.1-0.5-0.2
		c-1.9-0.8-3.5-2.1-4.7-3.7c-0.5-0.7-1-1.4-1.3-2.2c-0.4-0.9-0.7-1.8-0.9-2.8c-0.4-2.1-0.2-4.2,0.6-6.2c1.1-2.9,3.3-5.3,6.2-6.6
		c0.6-0.3,1.2-0.5,1.9-0.7c1-0.3,2-0.4,3-0.4c0.8,0,1.7,0.1,2.5,0.3c0.5,0.1,1.1,0.3,1.6,0.5c1.4,0.5,2.7,1.3,3.7,2.3
		c1.2,1.1,2.1,2.4,2.8,3.9c0.2,0.4,0.3,0.7,0.4,1.1v0c0.4,1.2,0.6,2.5,0.6,3.7C266,142.2,263.4,146.5,259.1,148.5z"/>
</g>
</svg>
