<?xml version="1.0" encoding="utf-8"?>
<!-- Generator: Adobe Illustrator 25.3.1, SVG Export Plug-In . SVG Version: 6.00 Build 0)  -->
<svg version="1.1" id="Layer_1" xmlns="http://www.w3.org/2000/svg" xmlns:xlink="http://www.w3.org/1999/xlink" x="0px" y="0px"
	 viewBox="0 0 679 943.7" style="enable-background:new 0 0 679 943.7;" xml:space="preserve">
<g>
	<path d="M238.6,301.4c-3-2.8-7.8-2.7-10.6,0.3c-41.6,44.4-73.8,81.9-99.8,112c-2.8,3.3-5.6,6.5-8.3,9.7
		c-10.9-15.7-23.6-26-31.2-31.3c3.1-2.7,6.3-5.5,9.6-8.3c4.1-3.5,8.4-7.2,12.8-11c3.1-2.7,3.5-7.4,0.8-10.6
		c-2.7-3.1-7.4-3.5-10.6-0.8c-4.4,3.8-8.6,7.5-12.8,11c-63.4,56.4-112.4,89-76.1,127.2c8.7,8.7,17.4,12.7,27.2,12.4
		c24.6-0.9,49.8-30.2,100-88.5c25.9-30,58-67.4,99.4-111.5C241.8,309,241.6,304.2,238.6,301.4L238.6,301.4z M109.7,435.1
		c-5.3,6.1-10.3,11.7-15,17c-11.8-17-26.8-29-34.9-34.8c5.3-4.7,11-9.7,17.1-15.1C82.4,405.8,97.8,416.6,109.7,435.1z M39,497
		c-3.3,0.1-8.6-0.6-16-8c-7.4-7.4-8.1-12.7-8-16c0.4-11.1,12.3-25.5,33.5-45.3c6.1,4.1,23.7,16.9,35.8,35.8
		C64.5,484.6,50.1,496.6,39,497z"/>
	<path d="M397.4,179.3c3.7-8.2,7.3-16.6,10.9-24.9c3.6-9.3-9.6-14.9-13.8-5.9c-4.2,9.8-8.5,19.6-12.8,29.2c-1.2,2.8-0.7,6,1.4,8.2
		c19.7,20.9,35.5,38.7,45.3,50.2c-19.6-1.8-41.2-4.6-64.6-8.2c-3.2-0.5-6.4,1.1-7.9,4.1c-13.5,26.9-26.9,51.3-40,72.8
		c-4.4-17.9-11.6-48.5-18.8-84.1c-0.6-3-2.9-5.3-5.9-5.9c-35.6-7.2-66.2-14.4-84.1-18.8c21.5-13.1,45.9-26.5,72.8-40
		c2.9-1.5,4.6-4.6,4.1-7.9c-3.7-23.5-6.4-45.2-8.2-64.8c16.4,13.9,33.3,29.2,50.4,45.4c2.2,2.1,5.5,2.7,8.3,1.4
		c34.6-15.6,64.4-27.6,81.5-34.2c-2.3,5.9-5.2,13.3-8.7,21.8c-1.6,3.8,0.3,8.2,4.1,9.8c3.8,1.6,8.2-0.3,9.8-4.1
		c9.3-22.9,14.7-37.7,14.8-37.8c2.2-5.9-3.8-11.9-9.6-9.6c-0.4,0.2-41,15-93.5,38.5c-20.9-19.7-41.4-37.9-61.2-54
		c-2.3-1.9-5.5-2.2-8.2-0.9c-2.7,1.4-4.2,4.2-4,7.2c1.5,23,4.5,49.3,8.9,78.4c-31.8,16.1-60.1,32.1-84.2,47.6
		c-2.5,1.6-3.8,4.5-3.3,7.5c0.5,2.9,2.6,5.3,5.5,6.1c0.3,0.1,27.4,7.2,66.6,15.8c-52.4,51.9-96.6,91.3-125.8,116.9
		c-3.1,2.7-3.4,7.5-0.7,10.6c2.7,3.1,7.5,3.4,10.6,0.7c30.7-26.8,77.6-68.8,133.4-124.4c4.2,0.9,8.6,1.8,13,2.7
		c0.9,4.4,1.8,8.8,2.7,13c-11.9,11.9-23.8,24.1-35.4,36.2c-2.9,3-2.8,7.7,0.2,10.6c3,2.9,7.7,2.8,10.6-0.2
		c9.3-9.7,18.8-19.4,28.3-29.1c8.6,39.1,15.7,66.2,15.8,66.6c0.8,2.9,3.1,5,6.1,5.5c2.9,0.5,5.9-0.8,7.5-3.3
		c15.5-24.1,31.5-52.3,47.6-84.2c29.1,4.4,55.4,7.4,78.4,8.9c3,0.2,5.8-1.4,7.2-4.1c1.4-2.7,1-5.9-0.9-8.2
		C451.4,240,430.3,214.4,397.4,179.3L397.4,179.3z"/>
	<path d="M459.1,60.4c1.9,0,3.8-0.7,5.3-2.2l27.8-27.8c2.9-2.9,2.9-7.7,0-10.6c-2.9-2.9-7.7-2.9-10.6,0l-27.8,27.8
		c-2.9,2.9-2.9,7.7,0,10.6C455.2,59.7,457.2,60.4,459.1,60.4z"/>
	<path d="M509.8,296.9L482,269.1c-2.9-2.9-7.7-2.9-10.6,0c-2.9,2.9-2.9,7.7,0,10.6l27.8,27.8c2.9,2.9,7.7,2.9,10.6,0
		C512.7,304.6,512.7,299.8,509.8,296.9z"/>
	<path d="M435,174.6c0.3,4.1,4.1,7.2,8.1,6.8l39.2-3.4c9.9-1.2,8.6-15.5-1.3-14.9l-39.2,3.4C437.7,166.8,434.6,170.5,435,174.6z"/>
	<path d="M391.2,284.3c-1.3-3.9-5.5-6.1-9.5-4.8c-3.9,1.3-6.1,5.5-4.8,9.5l12.4,37.3c1.3,4,5.7,6.1,9.5,4.8c3.9-1.3,6.1-5.5,4.8-9.5
		L391.2,284.3z"/>
	<path d="M232.3,40.6c2.9,2.9,7.7,2.9,10.6,0c2.9-2.9,2.9-7.7,0-10.6L215.1,2.2c-2.9-2.9-7.7-2.9-10.6,0c-2.9,2.9-2.9,7.7,0,10.6
		L232.3,40.6z"/>
	<path d="M337.4,77c4.1,0.4,7.8-2.7,8.1-6.8l3.4-39.2c0.4-4.1-2.7-7.8-6.8-8.1c-4.1-0.4-7.8,2.7-8.1,6.8l-3.4,39.2
		C330.2,73,333.3,76.7,337.4,77z"/>
	<path d="M185.6,122.6l37.3,12.4c3.8,1.3,8.2-0.8,9.5-4.8c1.3-3.9-0.8-8.2-4.8-9.5l-37.3-12.4c-3.9-1.3-8.2,0.8-9.5,4.8
		C179.5,117.1,181.6,121.3,185.6,122.6z"/>
</g>
</svg>
